<?xml version="1.0" encoding="utf-8"?>
<!-- Generator: Adobe Illustrator 16.0.0, SVG Export Plug-In . SVG Version: 6.00 Build 0)  -->
<!DOCTYPE svg PUBLIC "-//W3C//DTD SVG 1.1//EN" "http://www.w3.org/Graphics/SVG/1.1/DTD/svg11.dtd">
<svg version="1.1" id="Capa_1" xmlns="http://www.w3.org/2000/svg" xmlns:xlink="http://www.w3.org/1999/xlink" x="0px" y="0px"
	 width="1559.061px" height="1559.059px" viewBox="0 0 1559.061 1559.059" enable-background="new 0 0 1559.061 1559.059"
	 xml:space="preserve">
<g>
	<g id="Guides_For_Artboard_5_">
	</g>
	<g id="Artwork_5_">
	</g>
	<g id="Layer_2_5_">
		<g>
			<path fill="#F7F1E6" d="M849.207,849.204c7.533-7.533,15.714-14.014,24.339-19.514c61.539-71.784,95.104-162.165,95.104-257.716
				c0-105.958-41.259-205.573-116.186-280.492c-74.923-74.931-174.538-116.194-280.499-116.194
				c-105.958,0-205.573,41.263-280.496,116.186c-74.922,74.922-116.182,174.545-116.182,280.5
				c0,105.965,41.259,205.572,116.182,280.494c74.923,74.928,174.538,116.188,280.496,116.188
				c95.556,0,185.944-33.57,257.724-95.109C835.19,864.917,841.675,856.735,849.207,849.204z M656.323,739.418
				c0,0-30.371,30.493-39.491,38.305c-6.838,5.889-21.73,17.729-37.833,17.729c-16.126,0-30.987-11.84-37.864-17.729
				c-9.116-7.812-39.482-38.305-39.482-38.305C440.789,682.166,365.25,611.099,354.86,547.803
				c-7.285-44.721-0.177-81.606,21.164-109.615c21.522-28.269,54.286-44.395,100.177-49.314c4.437-0.444,8.433-0.652,12.464-0.652
				c32.41,0,65.182,12.075,90.311,32.505c25.16-20.43,57.904-32.505,90.373-32.505c4,0,8.024,0.208,12.437,0.652
				c45.88,4.92,78.62,21.042,100.169,49.314c21.346,28.009,28.445,64.895,21.164,109.615
				C792.726,611.067,717.178,682.166,656.323,739.418z"/>
			<path fill="#333333" d="M1525.283,1362.196L1118.46,955.372c6.664,43.469-6.719,89.416-40.206,122.891
				c-27.923,27.922-64.518,41.883-101.108,41.883c-7.281,0-14.555-0.572-21.765-1.682l406.811,406.811
				c22.52,22.52,52.034,33.781,81.544,33.781s59.023-11.258,81.544-33.781C1570.318,1480.247,1570.318,1407.227,1525.283,1362.196z"
				/>
			<path fill="#F3DBBD" d="M829.689,873.545c7.815-6.703,15.419-13.721,22.775-21.078c7.359-7.359,14.382-14.963,21.081-22.777
				c-8.625,5.496-16.806,11.98-24.339,19.514C841.675,856.735,835.19,864.917,829.689,873.545z"/>
			<path fill="#F3DBBD" d="M1078.254,1078.266c33.483-33.479,46.87-79.426,40.206-122.891c-4.448-29.037-17.832-56.969-40.194-79.33
				l-13.431-13.436c-24.272,41.004-53.845,79.234-88.416,113.809c-34.575,34.576-72.809,64.152-113.809,88.424l13.419,13.42
				c22.374,22.377,50.312,35.766,79.359,40.209c7.21,1.105,14.483,1.682,21.765,1.682
				C1013.736,1120.149,1050.331,1106.188,1078.254,1078.266z"/>
			<path fill="#333333" d="M976.415,976.415c34.571-34.574,64.148-72.805,88.416-113.809
				c51.57-87.108,79.107-186.747,79.107-290.632c0-152.777-59.495-296.418-167.523-404.442C868.383,59.503,724.75,0,571.966,0
				C419.185,0,275.552,59.503,167.524,167.532C59.492,275.556,0,419.196,0,571.974c0,152.784,59.496,296.421,167.524,404.441
				c108.032,108.035,251.661,167.523,404.442,167.523c103.887,0,203.525-27.529,290.637-79.1
				C903.606,1040.567,941.84,1010.989,976.415,976.415z M291.47,852.467c-74.922-74.917-116.182-174.529-116.182-280.494
				c0-105.954,41.259-205.573,116.182-280.5c74.923-74.923,174.538-116.186,280.496-116.186
				c105.961,0,205.576,41.263,280.499,116.194c74.923,74.915,116.186,174.534,116.186,280.492
				c0,95.552-33.565,185.933-95.104,257.716c-6.703,7.814-13.726,15.418-21.081,22.777c-7.356,7.357-14.96,14.375-22.775,21.078
				c-71.779,61.539-162.168,95.109-257.724,95.109C466.012,968.655,366.397,927.395,291.47,852.467z"/>
			<path fill="#EF8220" d="M781.946,438.191c-21.549-28.269-54.289-44.395-100.169-49.314c-4.408-0.444-8.437-0.652-12.437-0.652
				c-32.469,0-65.213,12.075-90.373,32.505c-25.129-20.43-57.9-32.505-90.311-32.505c-4.031,0-8.023,0.208-12.464,0.652
				c-45.888,4.92-78.655,21.042-100.177,49.314c-21.341,28.009-28.449,64.895-21.164,109.615
				c10.39,63.292,85.933,134.359,146.792,191.615c0,0,30.37,30.493,39.482,38.305c6.877,5.889,21.738,17.729,37.864,17.729
				c16.104,0,30.995-11.84,37.833-17.729c9.116-7.812,39.491-38.305,39.491-38.305c60.854-57.252,136.402-128.351,146.787-191.615
				C810.392,503.086,803.292,466.2,781.946,438.191z"/>
		</g>
	</g>
</g>
</svg>
