<?xml version="1.0" encoding="utf-8"?>
<!-- Generator: Adobe Illustrator 16.0.0, SVG Export Plug-In . SVG Version: 6.00 Build 0)  -->
<!DOCTYPE svg PUBLIC "-//W3C//DTD SVG 1.1//EN" "http://www.w3.org/Graphics/SVG/1.1/DTD/svg11.dtd">
<svg version="1.1" id="Capa_1" xmlns="http://www.w3.org/2000/svg" xmlns:xlink="http://www.w3.org/1999/xlink" x="0px" y="0px"
	 width="1559.061px" height="1559.059px" viewBox="0 0 1559.061 1559.059" enable-background="new 0 0 1559.061 1559.059"
	 xml:space="preserve">
<path fill="#EF8220" d="M670.184,737.79c0,0-131.927-16.979-130.341,127.384c0,0-130.088-49.178-149.122,88.84
	c0,0-161.814,25.383-149.123,187.197s190.371,134.848,226.86,114.223c0,0,61.869,182.439,309.354,65.043
	c0,0,19.037,122.154,247.48,95.186l98.358,120.568h34.903l-38.076-191.957c0,0,92.013,12.691,98.358-85.666
	c0,0,101.531-115.811-52.351-185.611c0,0,48.721-320.934-272.864-312.527C893.614,760.47,819.56,642.133,670.184,737.79z"/>
<path fill="#EDAA72" d="M1158.547,1536.231h-34.902l-98.358-120.568c-228.446,26.969-247.48-95.186-247.48-95.186
	c-247.481,117.396-309.354-65.043-309.354-65.043c-36.489,20.625-214.168,47.594-226.86-114.223
	c-1.839-23.605,0-44.324,4.568-62.441c30.935,128.723,188.214,103.908,222.289,84.652c0,0,61.87,182.438,309.354,65.041
	c0,0,19.038,122.156,247.481,95.186l98.358,120.57h16.656L1158.547,1536.231z"/>
<path fill="#FFDA2D" d="M1069.107,290.876c0-148.032-120.003-268.038-268.035-268.038
	c-147.305-0.003-266.771,118.392-268.032,265.69c-0.578,67.677,23.929,129.616,64.781,177.085
	c55.396,64.366,86.153,146.297,86.153,231.221v40.012h234.189v-40.003c0-85.386,31.65-167.253,87.028-232.249
	C1045.052,417.812,1069.107,357.155,1069.107,290.876z"/>
<g>
	<path fill="#FFE571" d="M661.441,453.856c55.401,64.357,86.163,146.281,86.163,231.211v51.781h-63.627v-40.021
		c0-84.93-30.761-166.854-86.162-231.208c-40.838-47.461-65.338-109.403-64.778-177.098
		C534.243,146.958,644.657,32.08,784.032,23.38c-107.944,33.931-186.36,134.184-187.371,253.382
		C596.076,344.427,620.577,406.369,661.441,453.856z"/>
	<path fill="#FFE571" d="M940.697,453.856c-55.401,64.357-86.163,146.281-86.163,231.211v51.781h63.627v-40.021
		c0-84.93,30.761-166.854,86.163-231.208c40.837-47.461,65.338-109.403,64.777-177.098
		C1067.896,146.958,957.481,32.08,818.106,23.38c107.944,33.931,186.36,134.184,187.371,253.382
		C1006.062,344.427,981.562,406.369,940.697,453.856z"/>
</g>
<rect x="670.181" y="736.843" fill="#E0E0E3" width="261.774" height="173.56"/>
<path fill="#EDAA72" d="M1038.24,960.268c4.96,2.152-6.474-9.4-9.724-13.746c-110.739-148.141-229.188-26.266-229.188-26.266
	c-145.316-107.309-235.429,68.328-235.429,68.328s135.642-102.604,230.827,18.65C794.727,1007.231,869.817,887.192,1038.24,960.268z
	"/>
<g>
	<polygon fill="#00DDC0" points="1174.028,710.263 1329.354,684.562 1199.731,554.938 	"/>
	<polygon fill="#00DDC0" points="487.416,710.263 332.094,684.562 461.716,554.938 	"/>
</g>
<path fill="#333333" d="M315.273,1007.204c4.257,0,8.568-1.189,12.408-3.682c32.765-21.25,66.303-26.902,66.574-26.947
	c9.954-1.562,17.707-9.459,19.087-19.443c4.609-33.416,16.744-56.23,36.068-67.805c33.946-20.322,81.945-2.941,82.356-2.791
	c7.062,2.664,14.979,1.678,21.163-2.646c6.182-4.324,9.833-11.422,9.75-18.969c-0.414-37.566,9.154-65.389,28.438-82.691
	c17.43-15.639,40.134-20.474,56.224-21.772v115.317c-65.673,29.521-102.055,99.059-103.76,102.381
	c-5.753,11.205-1.334,24.932,9.859,30.703c3.344,1.723,6.915,2.543,10.436,2.543c8.271,0,16.258-4.504,20.322-12.352
	c0.381-0.734,38.861-73.742,101.105-88.199c31.732-7.369,65.523,1.977,100.456,27.773c9.193,6.787,21.985,5.736,29.942-2.455
	c0.438-0.443,44.26-44.785,99.333-39.84c37.326,3.373,72.393,29.164,104.232,76.656c7.024,10.471,21.208,13.27,31.687,6.25
	c10.475-7.023,13.273-21.211,6.252-31.686c-30.49-45.475-64.83-75.146-102.408-88.719v-72.588
	c51.717,6.902,93.528,25.398,124.454,55.164c4.431,4.264,10.134,6.385,15.834,6.385c5.993,0,11.977-2.344,16.456-7
	c8.748-9.086,8.471-23.545-0.615-32.289c-39.354-37.881-91.839-60.774-156.129-68.264v-3.396c0-9.4-5.683-17.47-13.798-20.972
	V696.84c0-78.475,28.971-155.693,81.574-217.436c33.56-39.391,56.017-87.033,64.954-137.782
	c2.187-12.424-6.111-24.267-18.532-26.456c-12.445-2.198-24.269,6.114-26.455,18.532c-7.524,42.744-26.453,82.884-54.738,116.081
	c-59.638,69.997-92.481,157.74-92.481,247.061v17.165h-31.19V631.91c0-12.616-10.223-22.838-22.838-22.838
	c-12.616,0-22.838,10.222-22.838,22.838v3.827h-34.781v-3.827c0-12.616-10.222-22.838-22.838-22.838
	c-12.615,0-22.838,10.222-22.838,22.838v82.098h-31.188v-17.171c0-90.018-32.558-177.424-91.681-246.12
	c-38.718-44.987-59.762-102.518-59.25-161.988c1.145-134.022,111.139-243.056,245.19-243.053
	c120.21,0,221.899,85.889,241.793,204.223c2.092,12.436,13.864,20.819,26.31,18.736c12.438-2.095,20.828-13.873,18.736-26.309
	c-11.27-67.028-46.09-128.374-98.048-172.743C937.312,24.714,870.266,0,801.072,0c-0.003,0,0,0-0.006,0
	c-77.305,0-150.058,29.912-204.854,84.223c-54.799,54.321-85.344,126.812-86.007,204.11
	c-0.604,70.544,24.363,138.793,70.307,192.176c51.991,60.411,80.627,137.238,80.627,216.324v17.552
	c-21.065-0.417-65.633,2.822-100.134,33.502c-23.888,21.245-38.139,50.914-42.542,88.441c-24.641-4.102-60.697-5.092-92.207,13.629
	c-28.353,16.848-46.949,45.459-55.411,85.174c-16.154,4.363-42.11,13.264-68.021,30.072c-10.582,6.863-13.593,21.006-6.729,31.59
	C300.468,1003.536,307.794,1007.204,315.273,1007.204z M909.126,759.684v33.112H693.019v-33.112H909.126L909.126,759.684z
	 M797.635,891.424c-35.013-22.133-70.069-31.49-104.616-28.01v-24.939h216.107v11.826
	C859.065,849.368,818.313,875.11,797.635,891.424z M783.679,681.411h34.781v32.594h-34.781V681.411z"/>
<path fill="#333333" d="M1190.855,1059.489c2.424-31.553,3.557-101.953-24.774-169.285c-4.894-11.623-18.28-17.08-29.909-12.191
	c-11.623,4.891-17.083,18.281-12.192,29.908c32.119,76.328,20.043,160.834,19.921,161.646c-1.535,10.107,3.837,20.004,13.143,24.227
	c40.792,18.506,64.451,41.42,70.313,68.104c8.985,40.916-25.405,81.311-25.697,81.652c-3.319,3.785-5.293,8.562-5.618,13.588
	c-1.501,23.281-8.733,40.436-21.492,50.986c-11.324,9.365-25.49,12.527-36.011,13.475l-21.236-88.922
	c-2.93-12.27-15.231-19.836-27.518-16.91c-12.266,2.93-19.839,15.25-16.91,27.518l25.286,105.889l31.367,158.141l-86.546-106.09
	c-4.937-6.045-12.622-9.186-20.372-8.244c-198.849,23.492-221.022-69.986-222.259-76.162c-0.953-7.205-5.237-13.207-11.616-16.703
	c-6.419-3.516-14.099-3.406-20.719-0.273c-81.672,38.742-149.592,47.332-201.875,25.521c-56.687-23.648-75.913-76.84-76.062-77.266
	c-2.187-6.441-7.129-11.574-13.483-14.002c-6.355-2.43-13.459-1.895-19.382,1.455c-15.643,8.834-87.229,24.781-139.126-2.84
	c-32.138-17.102-50.213-48.49-53.73-93.289c-1.97-25.143,0.667-48.035,7.844-68.047c4.257-11.873-1.916-24.949-13.785-29.209
	c-11.87-4.248-24.945,1.912-29.208,13.785c-9.373,26.133-12.869,55.416-10.387,87.043c5.999,76.443,45.621,112.908,77.807,130.033
	c52.195,27.777,120.027,23.508,160.261,11.482c13.197,23.846,40.749,61.449,90.773,82.627
	c59.604,25.227,132.575,19.891,217.18-15.824c19.859,39.363,79.047,105.234,250.58,88.383l90.527,110.965
	c4.339,5.316,10.837,8.4,17.697,8.4h34.902c6.836,0,13.313-3.062,17.649-8.342c4.339-5.283,6.084-12.232,4.753-18.938
	l-32.798-165.369c16.553-2.207,37.165-8.117,55.042-22.715c21.568-17.604,34.267-43.244,37.802-76.291
	c12.356-16.449,42.277-62.953,31.057-114.934C1263.903,1114.735,1236.616,1083.504,1190.855,1059.489z"/>
<path fill="#333333" d="M443.136,1068.124c-29.596,1.578-48.523,22.318-50.582,24.678l17.201,15.023l17.004,15.246
	c0.055-0.061,5.563-5.945,13.483-8.369c5.759-1.758,15-2.658,28.565,9.889c4.395,4.066,9.958,6.072,15.503,6.072
	c6.145,0,12.271-2.467,16.772-7.328c8.565-9.262,8.002-23.709-1.258-32.275C477.889,1070.77,456.862,1067.368,443.136,1068.124z"/>
<path fill="#333333" d="M983.103,1071.284c26.105-9.973,55.25-7.748,86.614,6.615c11.477,5.256,25.027,0.207,30.271-11.258
	c5.253-11.469,0.21-25.021-11.258-30.271c-43.072-19.719-84.217-22.271-122.298-7.609c-44.395,17.098-73.341,53.809-88.486,78.145
	c-34.747-18.973-69.757-22.24-97.944-19.986c-51.511,4.152-90.479,27.424-92.11,28.41c-10.767,6.516-14.202,20.496-7.722,31.281
	c6.482,10.785,20.493,14.275,31.309,7.832c5.024-3.002,123.986-72.059,201.258,48.285c4.366,6.793,11.727,10.502,19.238,10.502
	c4.227,0,8.499-1.172,12.317-3.619c10.615-6.816,13.693-20.945,6.882-31.561c-11.419-17.781-23.605-32.301-36.182-44.121
	C926.066,1115.42,948.864,1084.36,983.103,1071.284z"/>
<path fill="#333333" d="M1409.03,914.331h-22.591v-22.592c0-12.615-10.223-22.838-22.839-22.838
	c-12.615,0-22.838,10.223-22.838,22.838v22.592h-22.594c-12.616,0-22.838,10.223-22.838,22.838s10.222,22.838,22.838,22.838h22.594
	V982.6c0,12.615,10.223,22.838,22.838,22.838c12.616,0,22.839-10.223,22.839-22.838v-22.594h22.591
	c12.615,0,22.838-10.223,22.838-22.838S1421.643,914.331,1409.03,914.331z"/>
<path fill="#333333" d="M364.323,439.055h22.594v22.591c0,12.616,10.222,22.838,22.837,22.838c12.616,0,22.838-10.222,22.838-22.838
	v-22.591h22.592c12.615,0,22.838-10.223,22.838-22.838c0-12.616-10.223-22.838-22.838-22.838h-22.592v-22.595
	c0-12.615-10.222-22.838-22.838-22.838c-12.615,0-22.837,10.223-22.837,22.838v22.595h-22.594
	c-12.616,0-22.838,10.222-22.838,22.838C341.485,428.832,351.71,439.055,364.323,439.055z"/>
<path fill="#333333" d="M218.294,859.172h22.594c12.616,0,22.838-10.223,22.838-22.838s-10.222-22.838-22.838-22.838h-22.594
	v-22.596c0-12.615-10.222-22.837-22.838-22.837s-22.838,10.223-22.838,22.837v22.596h-22.591c-12.616,0-22.838,10.223-22.838,22.838
	s10.222,22.838,22.838,22.838h22.591v22.592c0,12.615,10.222,22.838,22.838,22.838s22.838-10.223,22.838-22.838V859.172z"/>
<path fill="#333333" d="M1174.031,733.101c1.236,0,2.484-0.101,3.73-0.308l155.325-25.7c8.443-1.397,15.398-7.399,18.015-15.548
	c2.615-8.148,0.456-17.077-5.594-23.134l-129.626-129.622c-6.05-6.054-14.981-8.212-23.133-5.594
	c-8.151,2.616-14.15,9.574-15.548,18.015l-25.697,155.325c-1.203,7.269,1.175,14.668,6.383,19.878
	C1162.201,730.731,1168.023,733.101,1174.031,733.101z M1215.005,602.511l66.775,66.774l-80.009,13.24L1215.005,602.511z"/>
<path fill="#333333" d="M328.364,707.093l155.325,25.7c1.242,0.204,2.487,0.308,3.73,0.308c6.008,0,11.833-2.372,16.15-6.687
	c5.207-5.211,7.582-12.613,6.383-19.879l-25.7-155.325c-1.398-8.443-7.399-15.398-15.549-18.015
	c-8.154-2.618-17.079-0.46-23.133,5.594L315.949,668.411c-6.051,6.054-8.209,14.982-5.594,23.134S319.917,705.695,328.364,707.093z
	 M446.439,602.511l13.239,80.012l-80.012-13.24L446.439,602.511z"/>
</svg>
