<?xml version="1.0" encoding="utf-8"?>
<!-- Generator: Adobe Illustrator 16.0.0, SVG Export Plug-In . SVG Version: 6.00 Build 0)  -->
<!DOCTYPE svg PUBLIC "-//W3C//DTD SVG 1.1//EN" "http://www.w3.org/Graphics/SVG/1.1/DTD/svg11.dtd">
<svg version="1.1" id="Capa_1" xmlns="http://www.w3.org/2000/svg" xmlns:xlink="http://www.w3.org/1999/xlink" x="0px" y="0px"
	 width="1559.061px" height="1559.059px" viewBox="0 0 1559.061 1559.059" enable-background="new 0 0 1559.061 1559.059"
	 xml:space="preserve">
<rect x="44.123" y="172.102" transform="matrix(0.7071 -0.7071 0.7071 0.7071 -122.439 295.6179)" fill="#EF8220" width="502.999" height="247.008"/>
<circle fill="#FBE4A3" cx="132.368" cy="386.138" r="72.067"/>
<path fill="#333333" d="M415.861,240.281c-1.977,0-3.989-0.186-5.969-0.582c-1.918-0.396-3.836-0.974-5.69-1.735
	c-1.83-0.761-3.597-1.706-5.241-2.802c-1.675-1.126-3.225-2.405-4.628-3.806c-5.664-5.661-8.925-13.517-8.925-21.525
	c0-1.979,0.213-3.992,0.609-5.938c0.366-1.952,0.947-3.87,1.708-5.694c0.761-1.858,1.705-3.624,2.801-5.268
	c1.127-1.675,2.406-3.228,3.807-4.628c1.4-1.401,2.953-2.68,4.628-3.776c1.645-1.093,3.411-2.04,5.241-2.802
	c1.854-0.761,3.772-1.37,5.69-1.735c3.962-0.792,7.979-0.792,11.906,0c1.952,0.365,3.867,0.975,5.694,1.735
	c1.857,0.762,3.624,1.708,5.268,2.802c1.675,1.096,3.229,2.375,4.629,3.776s2.68,2.954,3.775,4.628
	c1.097,1.645,2.041,3.41,2.802,5.268c0.762,1.827,1.34,3.742,1.735,5.694c0.396,1.949,0.606,3.959,0.606,5.938
	c0,8.008-3.255,15.865-8.922,21.525c-1.4,1.401-2.954,2.68-4.629,3.806c-1.644,1.096-3.41,2.041-5.268,2.802
	c-1.827,0.761-3.742,1.34-5.694,1.735C419.851,240.098,417.841,240.281,415.861,240.281z"/>
<rect x="44.126" y="1139.931" transform="matrix(0.7071 0.7071 -0.7071 0.7071 979.9695 161.0122)" fill="#68C5AF" width="502.999" height="247.007"/>
<circle fill="#FBE4A3" cx="132.368" cy="1172.916" r="72.067"/>
<path fill="#333333" d="M415.861,1379.674c-1.977,0-3.989-0.213-5.969-0.609c-1.918-0.396-3.836-0.975-5.69-1.736
	c-1.83-0.762-3.597-1.705-5.241-2.801c-1.675-1.094-3.225-2.373-4.628-3.773c-1.401-1.4-2.68-2.957-3.776-4.631
	c-1.096-1.645-2.041-3.41-2.802-5.266c-0.761-1.83-1.37-3.746-1.766-5.693c-0.396-1.953-0.582-3.959-0.582-5.938
	c0-1.98,0.186-3.992,0.582-5.939c0.396-1.947,0.975-3.867,1.736-5.725c0.761-1.826,1.705-3.592,2.801-5.236
	c1.127-1.676,2.406-3.23,3.807-4.633c1.4-1.4,2.953-2.68,4.628-3.805c1.645-1.094,3.411-2.01,5.241-2.771
	c1.854-0.762,3.772-1.367,5.69-1.732c3.929-0.795,7.979-0.795,11.906,0c1.952,0.365,3.867,0.971,5.694,1.732
	c1.857,0.762,3.624,1.678,5.268,2.771c1.675,1.125,3.229,2.404,4.629,3.805c1.4,1.402,2.68,2.957,3.775,4.633
	c1.097,1.645,2.041,3.41,2.802,5.236c0.762,1.857,1.34,3.777,1.735,5.725c0.396,1.949,0.606,3.959,0.606,5.939
	c0,1.979-0.21,3.988-0.606,5.938c-0.396,1.949-0.974,3.867-1.735,5.693c-0.761,1.855-1.705,3.621-2.802,5.266
	c-1.096,1.674-2.375,3.23-3.775,4.631s-2.954,2.68-4.629,3.773c-1.644,1.096-3.41,2.039-5.268,2.801
	c-1.827,0.762-3.742,1.34-5.694,1.736C419.851,1379.461,417.841,1379.674,415.861,1379.674z"/>
<rect x="1011.942" y="1139.931" transform="matrix(-0.7071 0.7071 -0.7071 -0.7071 3050.2119 1263.4309)" fill="#FAD06A" width="502.999" height="247.007"/>
<circle fill="#FBE4A3" cx="1426.692" cy="1172.916" r="72.067"/>
<path fill="#333333" d="M1143.199,1379.674c-1.976,0-3.989-0.213-5.938-0.609c-1.949-0.396-3.867-0.975-5.694-1.736
	c-1.854-0.762-3.624-1.705-5.265-2.801c-1.675-1.094-3.231-2.373-4.632-3.773s-2.68-2.957-3.773-4.631
	c-1.096-1.645-2.04-3.41-2.801-5.266c-0.762-1.83-1.37-3.746-1.736-5.693c-0.396-1.953-0.608-3.959-0.608-5.938
	c0-1.98,0.213-3.992,0.608-5.939c0.366-1.947,0.975-3.867,1.736-5.725c0.761-1.826,1.705-3.592,2.801-5.236
	c1.094-1.676,2.373-3.23,3.773-4.633c1.4-1.4,2.957-2.68,4.632-3.805c1.644-1.094,3.41-2.01,5.265-2.771
	c1.83-0.762,3.745-1.367,5.694-1.732c9.896-2.01,20.401,1.248,27.469,8.309c1.401,1.402,2.68,2.957,3.776,4.633
	c1.093,1.645,2.04,3.41,2.801,5.236c0.762,1.857,1.367,3.777,1.733,5.725c0.396,1.949,0.608,3.959,0.608,5.939
	c0,1.979-0.213,3.988-0.608,5.938c-0.366,1.949-0.972,3.867-1.733,5.693c-0.761,1.855-1.708,3.621-2.801,5.266
	c-1.097,1.674-2.375,3.23-3.776,4.631C1159.063,1376.417,1151.208,1379.674,1143.199,1379.674z"/>
<g>
	<path fill="#FBE4A3" d="M576.858,626.633c-21.567,23.952-22.213,61.025,0.141,84.676c22.941,24.235,60.498,25.734,85.182,4.406
		l-64.293,64.899c-9.967,11.541-14.939,25.895-14.957,40.266c0.018,15.828,6.044,31.635,18.111,43.701
		c23.045,23.045,59.711,24.096,83.967,3.154l0.305,0.305c-20.94,24.258-19.89,60.926,3.134,83.949
		c23.045,23.045,59.71,24.096,83.967,3.154c0,0,150.337-149.529,149.975-149.084L797.743,930.704
		c-0.789,0.789-1.535,1.578-2.284,2.406c-21.589,23.934-22.217,60.986,0.14,84.637c23.469,24.842,62.299,25.791,86.899,2.891
		c0.101-0.062,0.183-0.141,0.265-0.223l8.913-8.914l-3.011,2.973l220.08-220.498l-10.177,48.734
		c-9.215,34.383,11.19,69.725,45.575,78.939l0,0c34.385,9.213,69.725-11.191,78.939-45.576l46.754-223.88
		c2.667-12.771,8.86-24.54,17.88-33.971l0,0c33.603-35.137,32.984-90.678-1.395-125.057l-204.557-204.556
		c-46.114-46.114-120.882-46.114-166.996,0l-55.688,55.688L579.146,624.233C578.354,625.016,577.586,625.825,576.858,626.633z"/>
	<path fill="#FBE4A3" d="M450.319,765.084l112.44-112.657c2.573-9.348,7.284-18.228,14.099-25.794
		c0.728-0.811,1.495-1.617,2.284-2.406L779.53,423.839l-79.549-79.549l-55.688-55.688c-46.114-46.114-120.882-46.114-166.996,0
		L272.741,493.159c-34.378,34.379-34.997,89.923-1.395,125.057c9.02,9.431,15.213,21.2,17.881,33.971l26.595,127.341l20.161-96.54
		c9.214-34.385,44.555-54.789,78.94-45.575l0,0c34.384,9.214,54.789,44.555,45.575,78.939L450.319,765.084z"/>
	<path fill="#FBE4A3" d="M576.858,932.422c-21.567-23.953-22.213-61.027,0.141-84.674c2.795-2.951,5.812-5.555,8.991-7.832
		c-1.997-6.182-3.051-12.598-3.06-19.035c0.018-14.373,4.99-28.725,14.957-40.264l1.078-1.087l-1.078-1.087
		c-9.967-11.541-14.939-25.896-14.957-40.265c0.009-6.438,1.062-12.856,3.06-19.035c-3.179-2.277-6.196-4.878-8.991-7.832
		c-15.293-16.178-19.809-38.635-14.239-58.882l-112.44,112.657l10.176-48.732c9.215-34.385-11.19-69.726-45.574-78.939l0,0
		c-34.385-9.215-69.726,11.19-78.94,45.575L289.228,906.87c-2.668,12.771-8.861,24.541-17.881,33.971
		c-33.602,35.135-32.984,90.68,1.395,125.057l204.557,204.557c46.114,46.115,120.882,46.115,166.996,0l55.688-55.688l79.549-79.551
		L579.143,934.827C578.354,934.038,577.586,933.229,576.858,932.422z"/>
	<path fill="#FBE4A3" d="M1269.833,906.868l-26.592-127.34l-20.161,96.54c-9.212,34.385-44.556,54.789-78.94,45.574l0,0
		c-34.384-9.213-54.789-44.555-45.574-78.939l10.176-48.732l-220.08,220.498l3.012-2.973l-8.913,8.916
		c-0.082,0.082-0.161,0.162-0.262,0.223c-24.601,22.902-63.431,21.951-86.899-2.891c-22.356-23.65-21.729-60.703-0.14-84.637
		c0.749-0.828,1.495-1.617,2.284-2.404l124.646-124.646c0.365-0.445-149.975,149.086-149.975,149.086
		c-24.257,20.939-60.922,19.889-83.967-3.156c-23.023-23.023-24.074-59.691-3.134-83.947l-0.305-0.305
		c-24.256,20.939-60.922,19.891-83.967-3.154c-7.158-7.162-12.137-15.652-15.052-24.668c-3.179,2.277-6.196,4.877-8.991,7.83
		c-22.357,23.652-21.708,60.723-0.141,84.674c0.728,0.811,1.495,1.617,2.284,2.406l279.937,279.936l55.688,55.689
		c46.114,46.113,120.882,46.113,166.996,0l204.557-204.557c34.379-34.379,34.996-89.924,1.395-125.057
		C1278.694,931.407,1272.501,919.639,1269.833,906.868z"/>
</g>
<rect x="1011.937" y="172.121" transform="matrix(-0.7071 -0.7071 0.7071 -0.7071 1947.7847 1398.0479)" fill="#4B596E" width="503" height="247.007"/>
<circle fill="#FBE4A3" cx="1426.692" cy="386.138" r="72.067"/>
<path fill="#333333" d="M1143.199,240.281c-1.976,0-3.989-0.186-5.938-0.582c-1.949-0.396-3.867-0.974-5.694-1.735
	c-1.854-0.761-3.624-1.706-5.265-2.802c-1.675-1.126-3.231-2.405-4.632-3.806c-5.661-5.661-8.922-13.517-8.922-21.525
	c0-1.979,0.213-3.992,0.609-5.938c0.396-1.952,0.974-3.87,1.735-5.694c0.761-1.858,1.705-3.624,2.802-5.268
	c1.093-1.675,2.372-3.228,3.772-4.628s2.957-2.68,4.632-3.776c1.645-1.093,3.41-2.04,5.265-2.802c1.83-0.761,3.745-1.37,5.694-1.735
	c3.928-0.792,7.947-0.792,11.875,0c1.949,0.365,3.867,0.975,5.694,1.735c1.854,0.762,3.624,1.708,5.265,2.802
	c1.679,1.096,3.231,2.375,4.632,3.776c1.401,1.401,2.68,2.954,3.776,4.628c1.123,1.645,2.04,3.41,2.801,5.268
	c0.762,1.827,1.367,3.742,1.732,5.694c0.396,1.949,0.609,3.959,0.609,5.938c0,8.008-3.258,15.865-8.922,21.525
	c-1.4,1.401-2.953,2.68-4.631,3.806c-1.645,1.096-3.411,2.041-5.266,2.802c-1.83,0.761-3.745,1.34-5.694,1.735
	C1147.188,240.098,1145.179,240.281,1143.199,240.281z"/>
<path fill="#333333" d="M1375.484,976.729c-9.967-9.963-25.104-11.543-36.751-4.807c-4.963-19.041-14.61-37.07-29.016-52.131
	c-5.089-5.32-8.572-11.941-10.079-19.145l-25.292-121.123l25.292-121.114c1.504-7.204,4.99-13.824,10.082-19.146
	c14.402-15.062,24.046-33.088,29.013-52.128c4.699,2.716,9.951,4.107,15.219,4.107c7.796,0,15.585-2.976,21.532-8.919
	l174.657-174.657c11.891-11.891,11.891-31.172,0-43.066L1194.456,8.916c-11.894-11.888-31.169-11.888-43.065,0L976.733,183.573
	c-11.462,11.461-11.843,29.771-1.209,41.729c-31.038,4.741-59.671,19.15-82.289,41.769L779.533,380.776L665.831,267.071
	c-23.188-23.188-52.2-37.064-82.368-41.684c10.713-11.955,10.359-30.322-1.133-41.814L407.67,8.916
	c-11.894-11.888-31.169-11.888-43.066,0L8.919,364.601c-11.891,11.891-11.891,31.172,0,43.066l174.658,174.657
	c5.947,5.944,13.739,8.919,21.531,8.919c5.268,0,10.521-1.392,15.219-4.111c4.963,19.041,14.61,37.07,29.016,52.132
	c5.088,5.319,8.572,11.939,10.076,19.144l25.292,121.12l-25.292,121.114c-1.504,7.203-4.991,13.824-10.082,19.146
	c-14.403,15.061-24.047,33.088-29.013,52.127c-11.647-6.734-26.784-5.154-36.751,4.809L8.919,1151.387
	c-11.891,11.891-11.891,31.172,0,43.066l355.688,355.688c5.947,5.943,13.739,8.918,21.531,8.918c7.795,0,15.585-2.975,21.531-8.918
	l174.657-174.658c11.489-11.488,11.843-29.855,1.133-41.811c30.171-4.619,59.181-18.498,82.368-41.688l113.702-113.701
	l113.702,113.701c23.188,23.189,52.2,37.064,82.368,41.688c-10.713,11.955-10.356,30.322,1.133,41.811l174.657,174.658
	c5.946,5.943,13.739,8.918,21.531,8.918s15.585-2.975,21.531-8.918l355.688-355.688c11.891-11.891,11.891-31.172,0-43.066
	L1375.484,976.729z M1397.262,1143.491c16.215-16.211,42.595-16.227,58.827-0.027l0.062,0.061
	c7.841,7.857,12.158,18.293,12.158,29.395c0,11.117-4.33,21.568-12.192,29.428c-16.224,16.225-42.624,16.225-58.854,0h0.003
	C1381.038,1186.12,1381.038,1159.719,1397.262,1143.491z M1397.262,356.711c16.225-16.221,42.628-16.229,58.858,0
	c7.858,7.859,12.188,18.31,12.188,29.428c0,11.114-4.33,21.564-12.192,29.424c-16.227,16.228-42.63,16.221-58.852,0
	c-16.227-16.224-16.227-42.628,0-58.852H1397.262z M1172.925,73.513l216.975,216.974c-13.015,4.985-25.219,12.686-35.694,23.158
	c-0.003,0-0.003,0-0.003,0c-11.507,11.507-19.68,25.097-24.562,39.563l-84.521-84.518c-11.895-11.888-31.17-11.888-43.066,0
	c-11.891,11.891-11.891,31.172,0,43.065l178.938,178.936l-27.04,27.04l-46.102-46.102l-204.557-204.557l-61.967-61.966
	L1172.925,73.513z M936.301,310.138c16.554-16.556,38.557-25.67,61.967-25.67c23.404,0,45.414,9.117,61.967,25.67l204.557,204.557
	c22.493,22.49,22.901,59.49,0.923,82.478c-12.969,13.557-21.849,30.429-25.686,48.791l-46.549,222.915
	c-5.141,17.695-23.584,28.133-41.452,23.354c-18.109-4.855-28.895-23.535-24.041-41.648c0.149-0.547,0.28-1.1,0.396-1.656
	l10.177-48.732c2.753-13.188-3.486-26.617-15.338-33.017c-11.86-6.407-26.507-4.258-36.022,5.279L867.121,992.954
	c-0.308,0.311-0.606,0.625-0.901,0.943l-4.309,4.307c-0.052,0.049-0.101,0.092-0.152,0.141
	c-12.497,11.631-32.238,10.949-44.022-1.52c-11.114-11.76-10.965-30.789,0.293-43.271c0.398-0.441,0.794-0.857,1.257-1.32
	l124.646-124.648c0.027-0.027,0.055-0.062,0.082-0.092l39.902-39.902c11.891-11.891,11.891-31.172,0-43.066
	c-11.895-11.888-31.17-11.888-43.066,0l-41.099,41.099c-0.158,0.152-0.317,0.301-0.476,0.459L751.842,932.659
	c-11.537,9.396-28.267,9.193-39.652-0.207c-0.758-0.627-1.495-1.293-2.202-2.004c-11.531-11.531-12.24-30.207-1.616-42.514
	c0.164-0.191,0.302-0.396,0.46-0.588l187.37-187.359c11.891-11.891,11.891-31.169,0-43.065c-11.888-11.885-31.163-11.888-43.066,0
	l-186.88,186.872c-0.378,0.297-0.771,0.572-1.139,0.889c-9.678,8.35-23.282,9.658-34.275,4.244
	c-2.987-1.473-5.795-3.414-8.261-5.883c-0.055-0.055-0.101-0.115-0.155-0.17c-0.762-0.773-1.477-1.58-2.15-2.422
	c-0.17-0.213-0.322-0.438-0.486-0.654c-0.573-0.756-1.121-1.529-1.62-2.336c-0.089-0.139-0.171-0.283-0.256-0.424
	c-1.203-2.018-2.195-4.178-2.938-6.479c0-0.004,0-0.004-0.003-0.006c-0.515-1.596-0.904-3.195-1.17-4.781
	c-0.015-0.088-0.027-0.176-0.039-0.266c-0.106-0.666-0.187-1.334-0.247-1.994c-0.073-0.861-0.128-1.727-0.131-2.6
	c0.003-1.809,0.158-3.6,0.463-5.359c0.03-0.178,0.079-0.352,0.112-0.527c0.302-1.574,0.701-3.125,1.233-4.625
	c0.01-0.025,0.021-0.049,0.03-0.074c0.29-0.809,0.609-1.607,0.966-2.389c0.033-0.074,0.076-0.145,0.109-0.217
	c0.338-0.73,0.694-1.449,1.09-2.152c0.165-0.297,0.359-0.576,0.536-0.865c0.283-0.469,0.558-0.945,0.865-1.398
	c0.069-0.1,0.148-0.195,0.222-0.295c0.438-0.627,0.89-1.248,1.377-1.846l0.204-0.203c0.006-0.006,0.012-0.016,0.018-0.021
	l63.209-63.803c0.116-0.115,0.21-0.243,0.323-0.359c0.063-0.061,0.134-0.112,0.194-0.177l123.942-123.875
	c11.895-11.888,11.9-31.169,0.012-43.065c-11.891-11.897-31.165-11.9-43.065-0.013L641.663,693.139
	c-11.008,9.044-26.486,9.349-37.811,1.331c-0.039-0.027-0.073-0.061-0.112-0.088c-1.688-1.212-3.24-2.564-4.607-4.008
	c-0.831-0.88-1.583-1.814-2.293-2.777c-0.216-0.292-0.417-0.594-0.621-0.895c-0.472-0.688-0.91-1.398-1.318-2.119
	c-0.204-0.359-0.411-0.713-0.6-1.078c-0.438-0.853-0.832-1.729-1.185-2.619c-0.171-0.43-0.323-0.861-0.473-1.297
	c-0.276-0.804-0.529-1.617-0.739-2.442c-0.116-0.457-0.214-0.92-0.308-1.379c-0.158-0.765-0.286-1.532-0.387-2.309
	c-0.052-0.381-0.109-0.758-0.146-1.142c-0.109-1.194-0.171-2.396-0.146-3.611c0-0.064,0.01-0.128,0.01-0.192
	c0.033-1.255,0.14-2.519,0.319-3.782c0.013-0.094,0.024-0.186,0.04-0.279c0.201-1.322,0.472-2.644,0.834-3.962
	c0-0.003,0.003-0.006,0.003-0.009c0.667-2.418,1.617-4.751,2.802-6.958c0.085-0.155,0.167-0.308,0.256-0.463
	c0.512-0.92,1.074-1.809,1.672-2.677c0.128-0.183,0.243-0.371,0.374-0.555c0.716-0.998,1.48-1.967,2.306-2.88
	c0.353-0.394,0.725-0.786,1.15-1.206L936.301,310.138z M161.798,415.562c-16.218,16.209-42.597,16.228-58.827,0.027l-0.061-0.061
	c-7.841-7.856-12.159-18.292-12.159-29.394c0-11.118,4.33-21.568,12.192-29.428c8.112-8.112,18.767-12.168,29.424-12.168
	s21.315,4.056,29.427,12.168C178.022,372.935,178.022,399.339,161.798,415.562z M178.071,490.689L357.01,311.754
	c11.891-11.891,11.891-31.172,0-43.066c-11.891-11.885-31.166-11.888-43.066,0l-84.521,84.518
	c-4.881-14.467-13.058-28.057-24.562-39.564c0,0,0,0-0.003,0c-10.475-10.475-22.677-18.175-35.691-23.16L386.142,73.507
	l131.595,131.594l-61.967,61.967L251.213,471.625l-46.102,46.102L178.071,490.689z M294.276,514.69l204.556-204.557
	c34.166-34.168,89.765-34.177,123.934,0l113.702,113.702l-178.814,178.82c-1.188,1.181-2.342,2.396-3.432,3.611
	c-0.612,0.682-1.193,1.382-1.781,2.076c-0.354,0.414-0.719,0.819-1.062,1.239c-4.544,5.545-8.344,11.502-11.432,17.723
	c-0.125,0.253-0.262,0.499-0.384,0.752c-0.292,0.603-0.56,1.218-0.84,1.827c-0.929,2.016-1.812,4.053-2.598,6.127l-44.805,44.89
	c-2.016-9.961-5.661-19.629-10.89-28.685c-12.673-21.954-33.139-37.658-57.627-44.217c-1.86-0.499-3.724-0.92-5.588-1.304
	c-0.551-0.112-1.099-0.207-1.65-0.311c-1.367-0.256-2.731-0.48-4.096-0.676c-0.566-0.079-1.129-0.161-1.695-0.231
	c-1.584-0.194-3.164-0.35-4.741-0.463c-0.277-0.021-0.555-0.052-0.829-0.069c-1.894-0.119-3.778-0.177-5.66-0.184
	c-0.092,0-0.186-0.009-0.277-0.009c-0.273,0-0.548,0.024-0.822,0.024c-1.477,0.012-2.944,0.058-4.412,0.141
	c-0.493,0.027-0.986,0.061-1.479,0.097c-1.428,0.101-2.847,0.237-4.26,0.402c-0.402,0.046-0.801,0.085-1.203,0.137
	c-3.636,0.476-7.226,1.157-10.755,2.04c-0.365,0.092-0.725,0.195-1.087,0.289c-1.398,0.369-2.786,0.765-4.163,1.197
	c-0.433,0.134-0.862,0.271-1.291,0.411c-1.425,0.469-2.835,0.968-4.232,1.501c-0.28,0.106-0.566,0.207-0.847,0.316
	c-1.718,0.674-3.417,1.392-5.091,2.162c-0.049,0.021-0.094,0.046-0.143,0.07c-1.559,0.722-3.094,1.492-4.61,2.296
	c-0.396,0.21-0.783,0.427-1.175,0.643c-1.203,0.657-2.387,1.343-3.56,2.05c-0.408,0.246-0.813,0.49-1.218,0.742
	c-1.3,0.813-2.582,1.66-3.843,2.534c-0.204,0.14-0.414,0.273-0.618,0.417c-1.471,1.038-2.914,2.122-4.324,3.243
	c-0.274,0.216-0.536,0.447-0.807,0.666c-1.105,0.898-2.192,1.818-3.258,2.769c-0.405,0.362-0.807,0.73-1.206,1.099
	c-0.947,0.874-1.879,1.77-2.79,2.68c-0.372,0.372-0.749,0.74-1.114,1.118c-1.133,1.172-2.241,2.369-3.313,3.599
	c-0.098,0.113-0.204,0.22-0.302,0.335c-1.163,1.347-2.284,2.738-3.374,4.153c-0.314,0.405-0.612,0.825-0.917,1.236
	c-0.773,1.039-1.526,2.089-2.257,3.161c-0.17,0.25-0.359,0.487-0.53,0.74l-0.222-1.072c-3.837-18.361-12.716-35.234-25.682-48.787
	C271.371,574.185,271.782,537.182,294.276,514.69z M102.941,1202.346c-7.859-7.859-12.189-18.311-12.189-29.428
	c0-11.113,4.33-21.564,12.192-29.424c8.112-8.111,18.77-12.168,29.424-12.168c10.658,0,21.315,4.057,29.427,12.168
	c16.227,16.225,16.227,42.627,0.003,58.852C145.571,1218.563,119.168,1218.573,102.941,1202.346z M386.139,1485.542
	l-216.974-216.975c13.014-4.984,25.219-12.686,35.694-23.162c0.003,0,0.003,0,0.003,0c11.507-11.506,19.68-25.096,24.562-39.562
	l84.521,84.518c5.947,5.943,13.739,8.918,21.531,8.918c7.792,0,15.584-2.975,21.532-8.918c11.891-11.891,11.891-31.172,0-43.066
	l-178.939-178.936l27.04-27.039l46.102,46.102l204.557,204.557l61.967,61.967L386.139,1485.542z M622.766,1248.917
	c-16.553,16.553-38.56,25.67-61.97,25.67c-23.407,0-45.414-9.113-61.967-25.67L294.273,1044.36
	c-22.494-22.49-22.902-59.49-0.923-82.479c12.969-13.555,21.848-30.428,25.685-48.789l46.549-222.916
	c5.14-17.692,23.581-28.137,41.453-23.353c1.123,0.301,2.217,0.654,3.279,1.06c0.17,0.063,0.335,0.149,0.505,0.219
	c0.898,0.356,1.788,0.731,2.641,1.157c0.033,0.019,0.066,0.04,0.101,0.059c12,6.056,19.348,18.763,18.62,32.183
	c-0.003,0.063,0,0.131-0.003,0.195c-0.055,0.925-0.174,1.857-0.308,2.786c-0.03,0.207-0.036,0.414-0.073,0.621
	c-0.183,1.123-0.42,2.244-0.722,3.367c-0.149,0.549-0.28,1.1-0.396,1.657l-10.177,48.732c-2.753,13.188,3.486,26.617,15.338,33.017
	c11.854,6.404,26.504,4.254,36.022-5.279l70.646-70.78c1.879,3.191,3.985,6.267,6.272,9.242c0.183,0.237,0.362,0.478,0.548,0.716
	c0.606,0.77,1.228,1.528,1.861,2.283c0.374,0.447,0.745,0.896,1.129,1.34c0.18,0.207,0.348,0.424,0.53,0.631
	c-0.247,2.719-0.372,5.453-0.375,8.188c0.019,14.458,3.423,28.6,9.806,41.312c-0.113,0.222-0.207,0.453-0.317,0.679
	c-0.548,1.113-1.071,2.24-1.571,3.373c-0.152,0.344-0.316,0.686-0.463,1.033c-0.63,1.473-1.224,2.965-1.774,4.473
	c-0.125,0.342-0.234,0.688-0.356,1.029c-0.42,1.188-0.816,2.381-1.188,3.584c-0.152,0.494-0.299,0.99-0.441,1.486
	c-0.332,1.141-0.64,2.293-0.926,3.449c-0.11,0.436-0.226,0.869-0.326,1.303c-0.365,1.566-0.697,3.141-0.98,4.725
	c-0.046,0.252-0.076,0.512-0.122,0.764c-0.229,1.346-0.429,2.697-0.6,4.057c-0.063,0.512-0.119,1.025-0.174,1.539
	c-0.125,1.164-0.229,2.33-0.311,3.502c-0.036,0.498-0.076,0.994-0.101,1.49c-0.088,1.617-0.146,3.236-0.148,4.859
	c0,0.01,0,0.021,0,0.031v0.002c0,0.004,0,0.004,0,0.004c0,0.039,0.003,0.078,0.003,0.119c0.003,1.367,0.039,2.734,0.104,4.102
	c0.052,1.117,0.14,2.229,0.228,3.336c0.016,0.188,0.021,0.375,0.04,0.561c-0.171,0.195-0.326,0.396-0.496,0.588
	c-0.451,0.518-0.883,1.041-1.318,1.568c-0.493,0.594-0.987,1.191-1.462,1.797c-0.427,0.541-0.841,1.09-1.252,1.641
	c-0.453,0.607-0.907,1.213-1.346,1.828c-0.398,0.561-0.785,1.129-1.172,1.699c-0.421,0.621-0.838,1.244-1.242,1.875
	c-0.372,0.578-0.731,1.16-1.088,1.748c-0.387,0.633-0.77,1.27-1.139,1.912c-0.344,0.6-0.679,1.203-1.011,1.809
	c-0.351,0.641-0.694,1.281-1.026,1.932c-0.316,0.617-0.624,1.238-0.929,1.859c-0.316,0.652-0.627,1.303-0.926,1.961
	c-0.289,0.633-0.566,1.27-0.843,1.906c-0.28,0.658-0.558,1.318-0.825,1.982c-0.263,0.648-0.512,1.301-0.759,1.955
	c-0.246,0.658-0.487,1.322-0.719,1.986c-0.234,0.67-0.459,1.342-0.679,2.016c-0.213,0.656-0.417,1.314-0.612,1.975
	c-0.207,0.691-0.404,1.383-0.594,2.078c-0.18,0.65-0.347,1.307-0.512,1.963c-0.176,0.711-0.35,1.422-0.508,2.135
	c-0.146,0.648-0.28,1.301-0.414,1.953c-0.146,0.725-0.287,1.451-0.418,2.18c-0.112,0.643-0.216,1.285-0.316,1.928
	c-0.115,0.748-0.229,1.498-0.326,2.246c-0.082,0.625-0.152,1.25-0.222,1.873c-0.085,0.773-0.168,1.547-0.234,2.324
	c-0.052,0.609-0.092,1.217-0.134,1.826c-0.053,0.795-0.101,1.586-0.135,2.379c-0.024,0.59-0.036,1.184-0.049,1.775
	c-0.018,0.812-0.033,1.629-0.03,2.441c0.003,0.57,0.016,1.143,0.03,1.711c0.019,0.834,0.04,1.672,0.08,2.506
	c0.027,0.549,0.066,1.094,0.1,1.639c0.059,0.861,0.116,1.721,0.195,2.58c0.049,0.514,0.109,1.025,0.164,1.537
	c0.098,0.889,0.198,1.775,0.32,2.662c0.066,0.482,0.146,0.965,0.222,1.445c0.141,0.914,0.283,1.824,0.451,2.732
	c0.082,0.453,0.18,0.904,0.271,1.354c0.187,0.932,0.375,1.865,0.591,2.793c0.098,0.42,0.207,0.834,0.311,1.254
	c0.234,0.957,0.473,1.912,0.737,2.863c0.106,0.383,0.229,0.764,0.341,1.148c0.286,0.975,0.575,1.949,0.893,2.916
	c0.115,0.354,0.246,0.707,0.365,1.061c0.338,0.99,0.682,1.979,1.054,2.959c0.121,0.316,0.256,0.635,0.377,0.951
	c0.396,1.008,0.795,2.012,1.228,3.012c0.122,0.283,0.256,0.562,0.384,0.842c0.453,1.021,0.913,2.041,1.406,3.049
	c0.125,0.256,0.263,0.506,0.391,0.762c0.511,1.025,1.029,2.047,1.583,3.057c0.128,0.238,0.271,0.469,0.402,0.703
	c0.569,1.021,1.145,2.037,1.754,3.039c0.134,0.223,0.28,0.439,0.417,0.658c0.621,1.004,1.251,2.006,1.915,2.99
	c0.174,0.256,0.359,0.506,0.536,0.762c0.646,0.939,1.297,1.879,1.982,2.797c0.271,0.367,0.566,0.723,0.844,1.084
	c0.608,0.795,1.215,1.594,1.851,2.377c0.941,1.146,1.909,2.279,2.911,3.391c1.087,1.209,2.235,2.422,3.38,3.562l178.854,178.857
	L622.766,1248.917z M801.092,1113.711c-0.009-0.01-0.018-0.021-0.027-0.031L600.638,913.256c-0.384-0.385-0.756-0.777-1.146-1.209
	c-0.926-1.027-1.748-2.111-2.524-3.219c-0.207-0.293-0.404-0.592-0.6-0.889c-0.667-1.018-1.285-2.059-1.827-3.125
	c-0.061-0.119-0.134-0.23-0.191-0.35c-0.582-1.172-1.066-2.375-1.502-3.594c-0.115-0.322-0.219-0.648-0.325-0.975
	c-0.342-1.059-0.634-2.129-0.865-3.207c-0.03-0.148-0.076-0.295-0.104-0.443c0.155,0.109,0.316,0.201,0.473,0.307
	c1.592,1.109,3.212,2.168,4.859,3.164c0.246,0.15,0.502,0.287,0.749,0.436c1.507,0.893,3.039,1.736,4.586,2.533
	c0.332,0.172,0.661,0.352,0.992,0.516c1.727,0.865,3.475,1.674,5.244,2.426c0.311,0.131,0.624,0.254,0.935,0.381
	c1.626,0.67,3.271,1.295,4.927,1.871c0.256,0.088,0.509,0.186,0.768,0.273c1.83,0.615,3.679,1.166,5.539,1.666
	c0.354,0.094,0.706,0.182,1.06,0.27c1.784,0.457,3.575,0.869,5.381,1.219c0.125,0.023,0.249,0.055,0.374,0.08
	c1.906,0.359,3.825,0.648,5.746,0.889c0.384,0.049,0.765,0.092,1.148,0.133c1.931,0.221,3.864,0.396,5.804,0.494
	c1.102,22.143,10.088,43.924,26.775,60.607c0,0,0,0,0.002,0l0,0c0.149,0.15,0.312,0.283,0.46,0.434
	c17.217,16.984,39.729,25.852,62.479,26.422c7.244,0.182,14.51-0.453,21.635-1.961c3.679,14.729,11.005,28.641,21.974,40.242
	c1.105,1.17,2.234,2.299,3.383,3.398c0.381,0.363,0.776,0.701,1.16,1.057c0.779,0.719,1.559,1.443,2.359,2.133
	c0.469,0.404,0.953,0.781,1.429,1.174c0.736,0.609,1.468,1.221,2.217,1.803c0.521,0.402,1.054,0.783,1.58,1.174
	c0.722,0.535,1.443,1.074,2.181,1.588c0.557,0.391,1.126,0.756,1.692,1.131c0.722,0.48,1.443,0.961,2.178,1.418
	c0.584,0.365,1.179,0.711,1.769,1.061c0.731,0.432,1.462,0.867,2.205,1.279c0.605,0.338,1.221,0.656,1.833,0.98
	c0.74,0.389,1.477,0.775,2.226,1.141c0.627,0.309,1.258,0.6,1.892,0.896c0.752,0.346,1.501,0.691,2.259,1.016
	c0.637,0.275,1.279,0.539,1.922,0.799c0.764,0.311,1.531,0.611,2.302,0.898c0.648,0.244,1.298,0.475,1.952,0.699
	c0.776,0.271,1.559,0.533,2.342,0.783c0.654,0.207,1.309,0.412,1.967,0.604c0.795,0.234,1.59,0.453,2.388,0.666
	c0.654,0.174,1.312,0.344,1.97,0.502c0.811,0.195,1.623,0.379,2.436,0.553c0.655,0.139,1.307,0.277,1.965,0.404
	c0.828,0.158,1.659,0.299,2.49,0.432c0.648,0.107,1.297,0.215,1.949,0.309c0.844,0.119,1.689,0.219,2.533,0.312
	c0.646,0.074,1.288,0.152,1.934,0.211c0.865,0.08,1.729,0.137,2.595,0.191c0.627,0.041,1.257,0.088,1.885,0.115
	c0.892,0.041,1.784,0.053,2.673,0.068c0.488,0.008,0.972,0.035,1.459,0.035c0.128,0,0.256-0.008,0.384-0.008
	c0.673-0.004,1.346-0.027,2.019-0.047c0.746-0.018,1.492-0.035,2.238-0.072c0.694-0.033,1.389-0.088,2.083-0.141
	c0.722-0.051,1.443-0.104,2.162-0.17c0.706-0.066,1.406-0.152,2.113-0.238c0.709-0.084,1.422-0.17,2.132-0.27
	c0.706-0.102,1.406-0.217,2.109-0.332c0.703-0.117,1.404-0.234,2.104-0.369c0.703-0.135,1.407-0.279,2.11-0.43
	c0.697-0.148,1.392-0.305,2.086-0.469c0.697-0.164,1.392-0.34,2.082-0.523c0.694-0.184,1.386-0.375,2.077-0.572
	c0.686-0.197,1.37-0.402,2.053-0.619c0.69-0.215,1.379-0.443,2.067-0.678c0.67-0.229,1.34-0.461,2.007-0.707
	c0.694-0.252,1.382-0.521,2.07-0.791c0.651-0.256,1.304-0.516,1.949-0.789c0.694-0.293,1.382-0.6,2.073-0.91
	c0.631-0.287,1.264-0.566,1.888-0.869c0.694-0.332,1.383-0.682,2.071-1.031c0.608-0.311,1.218-0.615,1.82-0.941
	c0.7-0.377,1.392-0.775,2.083-1.172c0.578-0.332,1.16-0.654,1.732-1.002c0.71-0.43,1.41-0.881,2.11-1.33
	c0.539-0.348,1.084-0.684,1.62-1.043c0.73-0.49,1.446-1.008,2.168-1.521c0.49-0.35,0.989-0.689,1.477-1.051
	c0.795-0.59,1.574-1.215,2.354-1.836c0.393-0.314,0.794-0.611,1.188-0.932c1.163-0.959,2.311-1.945,3.435-2.969
	c0.627-0.539,1.236-1.105,1.839-1.709l8.916-8.912c0.348-0.348,0.688-0.707,1.018-1.07l153.521-153.812
	c0.831,4.096,2.004,8.127,3.383,12.104c0.064,0.182,0.119,0.369,0.183,0.551c0.612,1.732,1.288,3.443,2.004,5.146
	c0.194,0.463,0.39,0.926,0.591,1.385c0.688,1.572,1.416,3.125,2.192,4.666c0.271,0.539,0.56,1.072,0.843,1.604
	c0.57,1.076,1.084,2.168,1.696,3.229c9.193,15.926,22.497,28.535,38.45,36.777c0.066,0.033,0.134,0.07,0.201,0.104
	c3.754,1.928,7.655,3.611,11.684,5.043c0.444,0.158,0.889,0.314,1.337,0.467c1.961,0.664,3.94,1.287,5.956,1.826
	c2.25,0.604,4.504,1.09,6.757,1.523c0.484,0.09,0.965,0.186,1.449,0.27c2.198,0.387,4.395,0.707,6.587,0.934
	c0.355,0.035,0.712,0.057,1.068,0.09c2.007,0.186,4.008,0.309,6.002,0.363c0.381,0.012,0.762,0.033,1.142,0.039
	c2.175,0.037,4.337-0.012,6.492-0.125c0.469-0.023,0.935-0.061,1.4-0.092c2.12-0.143,4.233-0.338,6.328-0.623
	c0.091-0.012,0.186-0.02,0.277-0.031c2.155-0.299,4.287-0.697,6.409-1.141c0.473-0.102,0.944-0.199,1.413-0.305
	c2.073-0.469,4.132-0.994,6.163-1.6c0.311-0.092,0.612-0.197,0.92-0.293c1.845-0.568,3.669-1.195,5.475-1.877
	c0.384-0.145,0.768-0.281,1.148-0.43c1.955-0.768,3.882-1.6,5.779-2.492c0.417-0.193,0.828-0.4,1.242-0.602
	c1.803-0.881,3.584-1.803,5.326-2.793c0.158-0.088,0.319-0.17,0.478-0.258c1.843-1.061,3.636-2.199,5.405-3.377
	c0.408-0.271,0.812-0.545,1.218-0.826c1.739-1.199,3.444-2.441,5.101-3.754c0.226-0.178,0.438-0.369,0.661-0.549
	c1.51-1.221,2.98-2.49,4.418-3.803c0.316-0.289,0.64-0.576,0.953-0.867c1.534-1.443,3.023-2.939,4.464-4.486
	c0.302-0.326,0.597-0.66,0.896-0.99c1.343-1.482,2.646-2.998,3.897-4.57c0.141-0.176,0.289-0.348,0.43-0.523
	c1.33-1.695,2.591-3.457,3.809-5.25c0.138-0.203,0.296-0.389,0.433-0.596l0.223,1.07c3.837,18.361,12.716,35.234,25.682,48.789
	c21.985,22.99,21.574,59.99-0.92,82.48l-204.557,204.557c-34.171,34.166-89.768,34.174-123.933,0L801.092,1113.711z
	 M1172.925,1485.542l-131.594-131.596l61.966-61.967l204.557-204.557l46.103-46.102l27.039,27.041l-178.938,178.936
	c-11.891,11.891-11.891,31.172,0,43.064c5.947,5.945,13.739,8.92,21.532,8.92c7.792,0,15.584-2.975,21.531-8.92l84.521-84.518
	c4.882,14.467,13.058,28.057,24.562,39.564c0,0,0,0,0.003,0c10.476,10.475,22.677,18.176,35.691,23.16L1172.925,1485.542z"/>
</svg>
