<?xml version="1.0" encoding="iso-8859-1"?>
<!-- Generator: Adobe Illustrator 19.0.0, SVG Export Plug-In . SVG Version: 6.00 Build 0)  -->
<svg version="1.1" id="Capa_1" xmlns="http://www.w3.org/2000/svg" xmlns:xlink="http://www.w3.org/1999/xlink" x="0px" y="0px"
	 viewBox="0 0 512 512" style="enable-background:new 0 0 512 512;" xml:space="preserve">
<rect x="14.488" y="56.518" transform="matrix(-0.7071 0.7071 -0.7071 -0.7071 234.3734 97.0745)" style="fill:#EC7462;" width="165.188" height="81.119"/>
<circle style="fill:#FBE4A3;" cx="43.47" cy="126.809" r="23.667"/>
<path d="M136.57,78.909c-0.649,0-1.31-0.061-1.96-0.191c-0.63-0.13-1.26-0.32-1.869-0.57c-0.601-0.25-1.181-0.56-1.721-0.92
	c-0.55-0.37-1.059-0.79-1.52-1.25c-1.86-1.859-2.931-4.439-2.931-7.069c0-0.65,0.07-1.311,0.2-1.95
	c0.12-0.641,0.311-1.271,0.561-1.87c0.25-0.61,0.56-1.19,0.92-1.73c0.37-0.55,0.79-1.06,1.25-1.52s0.97-0.88,1.52-1.24
	c0.54-0.359,1.12-0.67,1.721-0.92c0.609-0.25,1.239-0.45,1.869-0.57c1.301-0.26,2.62-0.26,3.91,0c0.641,0.12,1.27,0.32,1.87,0.57
	c0.61,0.25,1.19,0.561,1.73,0.92c0.55,0.36,1.06,0.78,1.52,1.24c0.46,0.46,0.88,0.97,1.24,1.52c0.36,0.54,0.67,1.12,0.92,1.73
	c0.25,0.6,0.44,1.229,0.57,1.87c0.13,0.64,0.199,1.3,0.199,1.95c0,2.63-1.069,5.21-2.93,7.069c-0.46,0.46-0.97,0.88-1.52,1.25
	c-0.54,0.36-1.12,0.67-1.73,0.92c-0.6,0.25-1.229,0.44-1.87,0.57C137.88,78.849,137.22,78.909,136.57,78.909z"/>
<rect x="14.493" y="374.353" transform="matrix(-0.7071 -0.7071 0.7071 -0.7071 -127.6501 776.9507)" style="fill:#68C5AF;" width="165.188" height="81.119"/>
<circle style="fill:#FBE4A3;" cx="43.47" cy="385.189" r="23.667"/>
<path d="M136.57,453.089c-0.649,0-1.31-0.07-1.96-0.2c-0.63-0.13-1.26-0.32-1.869-0.57c-0.601-0.25-1.181-0.56-1.721-0.92
	c-0.55-0.359-1.059-0.779-1.52-1.239c-0.46-0.46-0.88-0.971-1.24-1.521c-0.36-0.54-0.67-1.12-0.92-1.729
	c-0.25-0.601-0.45-1.23-0.58-1.87c-0.13-0.641-0.191-1.3-0.191-1.95c0-0.65,0.061-1.311,0.191-1.95c0.13-0.64,0.32-1.27,0.57-1.88
	c0.25-0.6,0.56-1.18,0.92-1.72c0.37-0.55,0.79-1.061,1.25-1.521s0.97-0.88,1.52-1.25c0.54-0.359,1.12-0.66,1.721-0.91
	c0.609-0.25,1.239-0.449,1.869-0.569c1.29-0.261,2.62-0.261,3.91,0c0.641,0.12,1.27,0.319,1.87,0.569
	c0.61,0.25,1.19,0.551,1.73,0.91c0.55,0.37,1.06,0.79,1.52,1.25s0.88,0.971,1.24,1.521c0.36,0.54,0.67,1.12,0.92,1.72
	c0.25,0.61,0.44,1.24,0.57,1.88s0.199,1.3,0.199,1.95c0,0.65-0.069,1.31-0.199,1.95s-0.32,1.27-0.57,1.87
	c-0.25,0.609-0.56,1.189-0.92,1.729c-0.36,0.55-0.78,1.061-1.24,1.521s-0.97,0.88-1.52,1.239c-0.54,0.36-1.12,0.67-1.73,0.92
	c-0.6,0.25-1.229,0.44-1.87,0.57C137.88,453.019,137.22,453.089,136.57,453.089z"/>
<rect x="332.329" y="374.356" transform="matrix(0.7071 -0.7071 0.7071 0.7071 -171.8612 414.9213)" style="fill:#FAD06A;" width="165.188" height="81.119"/>
<circle style="fill:#FBE4A3;" cx="468.53" cy="385.189" r="23.667"/>
<path d="M375.43,453.089c-0.649,0-1.31-0.07-1.95-0.2s-1.27-0.32-1.87-0.57c-0.609-0.25-1.19-0.56-1.729-0.92
	c-0.55-0.359-1.061-0.779-1.521-1.239c-0.46-0.46-0.88-0.971-1.239-1.521c-0.36-0.54-0.67-1.12-0.92-1.729
	c-0.25-0.601-0.45-1.23-0.57-1.87c-0.13-0.641-0.2-1.3-0.2-1.95c0-0.65,0.07-1.311,0.2-1.95c0.12-0.64,0.32-1.27,0.57-1.88
	c0.25-0.6,0.56-1.18,0.92-1.72c0.359-0.55,0.779-1.061,1.239-1.521c0.46-0.46,0.971-0.88,1.521-1.25
	c0.54-0.359,1.12-0.66,1.729-0.91c0.601-0.25,1.23-0.449,1.87-0.569c3.25-0.66,6.7,0.41,9.021,2.729
	c0.46,0.46,0.88,0.971,1.24,1.521c0.359,0.54,0.67,1.12,0.92,1.72c0.25,0.61,0.449,1.24,0.569,1.88c0.13,0.64,0.2,1.3,0.2,1.95
	c0,0.65-0.07,1.31-0.2,1.95c-0.12,0.64-0.319,1.27-0.569,1.87c-0.25,0.609-0.561,1.189-0.92,1.729c-0.36,0.55-0.78,1.061-1.24,1.521
	C380.64,452.019,378.06,453.089,375.43,453.089z"/>
<g>
	<path style="fill:#FBE4A3;" d="M189.442,205.788c-7.083,7.866-7.295,20.041,0.046,27.808c7.534,7.959,19.868,8.451,27.974,1.447
		l-21.114,21.313c-3.273,3.79-4.906,8.504-4.912,13.223c0.006,5.198,1.985,10.389,5.948,14.352
		c7.568,7.568,19.609,7.913,27.575,1.036l0.1,0.1c-6.877,7.966-6.532,20.008,1.029,27.569c7.568,7.568,19.609,7.913,27.575,1.036
		c0,0,49.371-49.106,49.252-48.96l-40.934,40.934c-0.259,0.259-0.504,0.518-0.75,0.79c-7.09,7.86-7.296,20.028,0.046,27.795
		c7.707,8.158,20.459,8.47,28.538,0.949c0.033-0.02,0.06-0.046,0.087-0.073l2.927-2.927l-0.989,0.976l72.275-72.412l-3.342,16.004
		c-3.026,11.292,3.675,22.898,14.967,25.924l0,0c11.292,3.026,22.898-3.675,25.924-14.967l15.354-73.523
		c0.876-4.194,2.91-8.059,5.872-11.156l0,0c11.035-11.539,10.832-29.779-0.458-41.069L355.255,94.78
		c-15.144-15.144-39.698-15.144-54.842,0l-18.288,18.288L190.193,205C189.933,205.257,189.681,205.523,189.442,205.788z"/>
	<path style="fill:#FBE4A3;" d="M147.886,251.256l36.926-36.997c0.845-3.07,2.392-5.986,4.63-8.471
		c0.239-0.266,0.491-0.531,0.75-0.79L256,139.19l-26.124-26.124l-18.288-18.288c-15.144-15.144-39.698-15.144-54.842,0
		l-67.177,67.177c-11.29,11.29-11.493,29.531-0.458,41.069c2.962,3.097,4.996,6.962,5.872,11.156l8.734,41.819l6.621-31.704
		c3.026-11.292,14.632-17.993,25.924-14.967l0,0c11.292,3.026,17.993,14.632,14.967,25.924L147.886,251.256z"/>
	<path style="fill:#FBE4A3;" d="M189.442,306.21c-7.083-7.866-7.295-20.041,0.046-27.807c0.918-0.969,1.909-1.824,2.953-2.572
		c-0.656-2.03-1.002-4.137-1.005-6.251c0.006-4.72,1.639-9.433,4.912-13.223l0.354-0.357l-0.354-0.357
		c-3.273-3.79-4.906-8.504-4.912-13.223c0.003-2.114,0.349-4.222,1.005-6.251c-1.044-0.748-2.035-1.602-2.953-2.572
		c-5.022-5.313-6.505-12.688-4.676-19.337l-36.926,36.997l3.342-16.004c3.026-11.292-3.675-22.898-14.967-25.924l0,0
		c-11.292-3.026-22.898,3.675-25.924,14.967l-15.354,73.523c-0.876,4.194-2.91,8.059-5.872,11.156
		c-11.035,11.538-10.832,29.779,0.458,41.069l67.177,67.177c15.144,15.144,39.698,15.144,54.842,0l18.288-18.288L256,372.808
		L190.192,307C189.933,306.741,189.681,306.475,189.442,306.21z"/>
	<path style="fill:#FBE4A3;" d="M417.017,297.818l-8.733-41.819l-6.621,31.704c-3.025,11.292-14.632,17.993-25.924,14.967l0,0
		c-11.292-3.026-17.993-14.632-14.967-25.924l3.342-16.004l-72.275,72.412l0.989-0.976l-2.927,2.928
		c-0.027,0.027-0.053,0.053-0.086,0.073c-8.079,7.521-20.831,7.209-28.538-0.949c-7.342-7.767-7.136-19.935-0.046-27.795
		c0.246-0.272,0.491-0.531,0.75-0.79l40.934-40.934c0.12-0.146-49.252,48.96-49.252,48.96c-7.966,6.877-20.007,6.532-27.575-1.036
		c-7.561-7.561-7.906-19.603-1.029-27.569l-0.1-0.1c-7.966,6.877-20.007,6.532-27.575-1.036c-2.351-2.352-3.986-5.14-4.943-8.101
		c-1.044,0.748-2.035,1.602-2.953,2.572c-7.342,7.767-7.129,19.941-0.046,27.807c0.239,0.266,0.491,0.531,0.75,0.79l91.932,91.932
		l18.288,18.288c15.144,15.144,39.698,15.144,54.842,0l67.177-67.177c11.29-11.29,11.493-29.531,0.458-41.069
		C419.927,305.877,417.893,302.012,417.017,297.818z"/>
</g>
<rect x="332.325" y="56.528" transform="matrix(0.7071 0.7071 -0.7071 0.7071 190.178 -264.9557)" style="fill:#4B596E;" width="165.188" height="81.119"/>
<circle style="fill:#FBE4A3;" cx="468.53" cy="126.809" r="23.667"/>
<path d="M375.43,78.909c-0.649,0-1.31-0.061-1.95-0.191c-0.64-0.13-1.27-0.32-1.87-0.57c-0.609-0.25-1.19-0.56-1.729-0.92
	c-0.55-0.37-1.061-0.79-1.521-1.25c-1.859-1.859-2.93-4.439-2.93-7.069c0-0.65,0.07-1.311,0.2-1.95c0.13-0.641,0.32-1.271,0.57-1.87
	c0.25-0.61,0.56-1.19,0.92-1.73c0.359-0.55,0.779-1.06,1.239-1.52c0.46-0.46,0.971-0.88,1.521-1.24c0.54-0.359,1.12-0.67,1.729-0.92
	c0.601-0.25,1.23-0.45,1.87-0.57c1.29-0.26,2.61-0.26,3.9,0c0.64,0.12,1.27,0.32,1.87,0.57c0.609,0.25,1.19,0.561,1.729,0.92
	c0.551,0.36,1.061,0.78,1.521,1.24c0.46,0.46,0.88,0.97,1.24,1.52c0.369,0.54,0.67,1.12,0.92,1.73c0.25,0.6,0.449,1.229,0.569,1.87
	c0.13,0.64,0.2,1.3,0.2,1.95c0,2.63-1.07,5.21-2.93,7.069c-0.46,0.46-0.97,0.88-1.521,1.25c-0.54,0.36-1.12,0.67-1.729,0.92
	c-0.601,0.25-1.23,0.44-1.87,0.57C376.74,78.849,376.08,78.909,375.43,78.909z"/>
<path d="M451.713,320.761c-3.273-3.272-8.244-3.791-12.069-1.579c-1.63-6.253-4.798-12.174-9.529-17.12
	c-1.671-1.747-2.815-3.921-3.31-6.287l-8.306-39.777l8.306-39.774c0.494-2.366,1.639-4.54,3.311-6.288
	c4.73-4.946,7.897-10.866,9.528-17.119c1.543,0.892,3.268,1.349,4.998,1.349c2.56,0,5.118-0.977,7.071-2.929l57.358-57.358
	c3.905-3.905,3.905-10.237,0-14.143L392.263,2.928c-3.906-3.904-10.236-3.904-14.143,0l-57.358,57.358
	c-3.764,3.764-3.889,9.777-0.397,13.704c-10.193,1.557-19.596,6.289-27.024,13.717l-37.34,37.341l-37.34-37.341
	c-7.615-7.615-17.143-12.172-27.05-13.689c3.518-3.926,3.402-9.958-0.372-13.732L133.88,2.928c-3.906-3.904-10.236-3.904-14.143,0
	L2.929,119.736c-3.905,3.905-3.905,10.237,0,14.143l57.358,57.358c1.953,1.952,4.512,2.929,7.071,2.929
	c1.73,0,3.455-0.457,4.998-1.35c1.63,6.253,4.798,12.174,9.529,17.12c1.671,1.747,2.815,3.921,3.309,6.287l8.306,39.776
	l-8.306,39.774c-0.494,2.366-1.639,4.54-3.311,6.288c-4.73,4.946-7.897,10.866-9.528,17.119c-3.825-2.212-8.796-1.693-12.069,1.579
	l-57.357,57.36c-3.905,3.905-3.905,10.237,0,14.143l116.809,116.809c1.953,1.952,4.512,2.929,7.071,2.929
	c2.56,0,5.118-0.977,7.071-2.929l57.358-57.358c3.773-3.773,3.889-9.805,0.372-13.731c9.908-1.517,19.435-6.075,27.05-13.69
	l37.34-37.34l37.34,37.34c7.615,7.615,17.143,12.172,27.05,13.69c-3.518,3.926-3.401,9.958,0.372,13.731l57.358,57.358
	c1.953,1.952,4.512,2.929,7.071,2.929s5.118-0.977,7.071-2.929l116.809-116.809c3.905-3.905,3.905-10.237,0-14.143L451.713,320.761z
	 M458.865,375.526c5.325-5.324,13.988-5.329,19.319-0.009l0.02,0.02c2.575,2.58,3.993,6.007,3.993,9.653
	c0,3.651-1.422,7.083-4.004,9.664c-5.328,5.328-13.998,5.328-19.328,0h0.001C453.537,389.525,453.537,380.855,458.865,375.526z
	 M458.865,117.145c5.328-5.327,13.999-5.33,19.329,0c2.581,2.581,4.003,6.013,4.003,9.664c0,3.65-1.422,7.082-4.004,9.663
	c-5.329,5.329-14,5.327-19.327,0c-5.329-5.328-5.329-13.999,0-19.327C458.866,117.145,458.865,117.145,458.865,117.145z
	 M385.192,24.142l71.255,71.255c-4.274,1.637-8.282,4.166-11.722,7.605c-0.001,0-0.001,0-0.001,0
	c-3.779,3.779-6.463,8.242-8.066,12.993l-27.757-27.756c-3.906-3.904-10.236-3.904-14.143,0c-3.905,3.905-3.905,10.237,0,14.143
	l58.764,58.763l-8.88,8.88l-15.14-15.14l-67.177-67.177l-20.35-20.35L385.192,24.142z M307.484,101.85
	c5.436-5.437,12.662-8.43,20.35-8.43c7.686,0,14.914,2.994,20.35,8.43l67.177,67.177c7.387,7.386,7.521,19.537,0.303,27.086
	c-4.259,4.452-7.175,9.993-8.435,16.023l-15.287,73.206c-1.688,5.811-7.745,9.239-13.613,7.669
	c-5.947-1.594-9.489-7.729-7.895-13.677c0.049-0.18,0.092-0.361,0.13-0.544l3.342-16.004c0.904-4.331-1.145-8.741-5.037-10.843
	c-3.895-2.104-8.705-1.398-11.83,1.734l-72.274,72.412c-0.101,0.102-0.199,0.205-0.296,0.31l-1.415,1.414
	c-0.017,0.016-0.033,0.03-0.05,0.046c-4.104,3.82-10.587,3.596-14.457-0.499c-3.65-3.862-3.601-10.111,0.096-14.21
	c0.131-0.145,0.261-0.282,0.413-0.434l40.934-40.935c0.009-0.009,0.018-0.02,0.027-0.03l13.104-13.104
	c3.905-3.905,3.905-10.237,0-14.143c-3.906-3.904-10.236-3.904-14.143,0l-13.497,13.497c-0.052,0.05-0.104,0.099-0.156,0.151
	l-48.418,48.136c-3.789,3.086-9.283,3.019-13.022-0.068c-0.249-0.206-0.491-0.425-0.723-0.658c-3.787-3.787-4.02-9.92-0.531-13.962
	c0.054-0.063,0.099-0.13,0.151-0.193l61.533-61.529c3.905-3.905,3.905-10.236,0-14.143c-3.904-3.903-10.234-3.904-14.143,0
	L218.8,277.104c-0.124,0.098-0.253,0.188-0.374,0.292c-3.178,2.742-7.646,3.172-11.256,1.394c-0.981-0.484-1.903-1.121-2.713-1.932
	c-0.018-0.018-0.033-0.038-0.051-0.056c-0.25-0.254-0.485-0.519-0.706-0.795c-0.056-0.07-0.106-0.144-0.16-0.215
	c-0.188-0.248-0.368-0.502-0.532-0.767c-0.029-0.046-0.056-0.093-0.084-0.139c-0.395-0.663-0.721-1.372-0.965-2.128
	c0-0.001,0-0.001-0.001-0.002c-0.169-0.524-0.297-1.049-0.384-1.57c-0.005-0.029-0.009-0.058-0.013-0.087
	c-0.035-0.219-0.061-0.438-0.081-0.655c-0.024-0.283-0.042-0.567-0.043-0.854c0.001-0.594,0.052-1.182,0.152-1.76
	c0.01-0.058,0.026-0.115,0.037-0.173c0.099-0.517,0.23-1.026,0.405-1.519c0.003-0.008,0.007-0.016,0.01-0.024
	c0.095-0.266,0.2-0.528,0.317-0.785c0.011-0.024,0.025-0.047,0.036-0.071c0.111-0.24,0.228-0.476,0.358-0.707
	c0.054-0.097,0.118-0.189,0.176-0.284c0.093-0.154,0.183-0.31,0.284-0.459c0.023-0.033,0.049-0.064,0.073-0.097
	c0.144-0.206,0.292-0.41,0.452-0.606l0.067-0.067c0.002-0.002,0.004-0.005,0.006-0.007l20.758-20.953
	c0.038-0.038,0.069-0.08,0.106-0.118c0.021-0.02,0.044-0.037,0.064-0.058l40.703-40.681c3.906-3.904,3.908-10.236,0.004-14.143
	c-3.905-3.907-10.235-3.908-14.143-0.004l-40.578,40.555c-3.615,2.97-8.698,3.07-12.417,0.437c-0.013-0.009-0.024-0.02-0.037-0.029
	c-0.554-0.398-1.064-0.842-1.513-1.316c-0.273-0.289-0.52-0.596-0.753-0.912c-0.071-0.096-0.137-0.195-0.204-0.294
	c-0.155-0.226-0.299-0.459-0.433-0.696c-0.067-0.118-0.135-0.234-0.197-0.354c-0.144-0.28-0.273-0.568-0.389-0.86
	c-0.056-0.141-0.106-0.283-0.155-0.426c-0.091-0.264-0.174-0.531-0.243-0.802c-0.038-0.15-0.07-0.302-0.101-0.453
	c-0.052-0.251-0.094-0.503-0.127-0.758c-0.017-0.125-0.036-0.249-0.048-0.375c-0.036-0.392-0.056-0.787-0.048-1.186
	c0-0.021,0.003-0.042,0.003-0.063c0.011-0.412,0.046-0.827,0.105-1.242c0.004-0.031,0.008-0.061,0.013-0.092
	c0.066-0.434,0.155-0.868,0.274-1.301c0-0.001,0.001-0.002,0.001-0.003c0.219-0.794,0.531-1.56,0.92-2.285
	c0.028-0.051,0.055-0.101,0.084-0.152c0.168-0.302,0.353-0.594,0.549-0.879c0.042-0.06,0.08-0.122,0.123-0.182
	c0.235-0.328,0.486-0.646,0.757-0.946c0.116-0.129,0.238-0.258,0.378-0.396L307.484,101.85z M53.135,136.472
	c-5.326,5.323-13.989,5.329-19.319,0.009l-0.02-0.02c-2.575-2.58-3.993-6.007-3.993-9.653c0-3.651,1.422-7.083,4.004-9.664
	c2.664-2.664,6.163-3.996,9.663-3.996s7,1.332,9.664,3.996C58.463,122.473,58.463,131.144,53.135,136.472z M58.479,161.144
	l58.764-58.763c3.905-3.905,3.905-10.237,0-14.143c-3.905-3.903-10.235-3.904-14.143,0l-27.757,27.756
	c-1.603-4.751-4.288-9.214-8.066-12.993c0,0,0,0-0.001,0c-3.44-3.44-7.447-5.969-11.721-7.606L126.81,24.14l43.216,43.216
	l-20.35,20.35l-67.177,67.177l-15.14,15.14L58.479,161.144z M96.641,169.026l67.177-67.177c11.22-11.221,29.479-11.224,40.7,0
	l37.34,37.34l-58.723,58.725c-0.39,0.388-0.769,0.787-1.127,1.186c-0.201,0.224-0.392,0.454-0.585,0.682
	c-0.116,0.136-0.236,0.269-0.349,0.407c-1.492,1.821-2.74,3.777-3.754,5.82c-0.041,0.083-0.086,0.164-0.126,0.247
	c-0.096,0.198-0.184,0.4-0.276,0.6c-0.305,0.662-0.595,1.331-0.853,2.012l-14.714,14.742c-0.662-3.271-1.859-6.446-3.576-9.42
	c-4.162-7.21-10.883-12.367-18.925-14.521c-0.611-0.164-1.223-0.302-1.835-0.428c-0.181-0.037-0.361-0.068-0.542-0.102
	c-0.449-0.084-0.897-0.158-1.345-0.222c-0.186-0.026-0.371-0.053-0.557-0.076c-0.52-0.064-1.039-0.115-1.557-0.152
	c-0.091-0.007-0.182-0.017-0.272-0.023c-0.622-0.039-1.241-0.058-1.859-0.06c-0.03,0-0.061-0.003-0.091-0.003
	c-0.09,0-0.18,0.008-0.27,0.008c-0.485,0.004-0.967,0.019-1.449,0.046c-0.162,0.009-0.324,0.02-0.486,0.032
	c-0.469,0.033-0.935,0.078-1.399,0.132c-0.132,0.015-0.263,0.028-0.395,0.045c-1.194,0.156-2.373,0.38-3.532,0.67
	c-0.12,0.03-0.238,0.064-0.357,0.095c-0.459,0.121-0.915,0.251-1.367,0.393c-0.142,0.044-0.283,0.089-0.424,0.135
	c-0.468,0.154-0.931,0.318-1.39,0.493c-0.092,0.035-0.186,0.068-0.278,0.104c-0.564,0.221-1.122,0.457-1.672,0.71
	c-0.016,0.007-0.031,0.015-0.047,0.023c-0.512,0.237-1.016,0.49-1.514,0.754c-0.13,0.069-0.257,0.14-0.386,0.211
	c-0.395,0.216-0.784,0.441-1.169,0.673c-0.134,0.081-0.267,0.161-0.4,0.244c-0.427,0.267-0.848,0.545-1.262,0.832
	c-0.067,0.046-0.136,0.09-0.203,0.137c-0.483,0.341-0.957,0.697-1.42,1.065c-0.09,0.071-0.176,0.147-0.265,0.219
	c-0.363,0.295-0.72,0.597-1.07,0.909c-0.133,0.119-0.265,0.24-0.396,0.361c-0.311,0.287-0.617,0.581-0.916,0.88
	c-0.122,0.122-0.246,0.243-0.366,0.367c-0.372,0.385-0.736,0.778-1.088,1.182c-0.032,0.037-0.067,0.072-0.099,0.11
	c-0.382,0.442-0.75,0.899-1.108,1.364c-0.103,0.133-0.201,0.271-0.301,0.406c-0.254,0.341-0.501,0.686-0.741,1.038
	c-0.056,0.082-0.118,0.16-0.174,0.243l-0.073-0.352c-1.26-6.03-4.176-11.571-8.434-16.022
	C89.119,188.564,89.254,176.412,96.641,169.026z M33.806,394.854c-2.581-2.581-4.003-6.013-4.003-9.664
	c0-3.65,1.422-7.082,4.004-9.663c2.664-2.664,6.164-3.996,9.663-3.996c3.5,0,7,1.332,9.664,3.996
	c5.329,5.328,5.329,13.999,0.001,19.327C47.806,400.18,39.135,400.183,33.806,394.854z M126.809,487.856l-71.255-71.255
	c4.274-1.637,8.282-4.166,11.722-7.606c0.001,0,0.001,0,0.001,0c3.779-3.779,6.463-8.242,8.066-12.993l27.757,27.756
	c1.953,1.952,4.512,2.929,7.071,2.929s5.118-0.977,7.071-2.929c3.905-3.905,3.905-10.237,0-14.143l-58.764-58.763l8.88-8.88
	l15.14,15.14l67.177,67.177l20.35,20.35L126.809,487.856z M204.518,410.148c-5.436,5.436-12.663,8.43-20.351,8.43
	c-7.687,0-14.914-2.993-20.35-8.43L96.64,342.971c-7.387-7.386-7.521-19.537-0.303-27.086c4.259-4.452,7.175-9.993,8.435-16.023
	l15.287-73.206c1.688-5.81,7.744-9.24,13.613-7.669c0.369,0.099,0.728,0.215,1.077,0.348c0.056,0.021,0.11,0.049,0.166,0.072
	c0.295,0.117,0.587,0.24,0.867,0.38c0.011,0.006,0.022,0.013,0.033,0.019c3.941,1.989,6.354,6.162,6.115,10.569
	c-0.001,0.021,0,0.043-0.001,0.064c-0.018,0.304-0.057,0.61-0.101,0.915c-0.01,0.068-0.012,0.136-0.024,0.204
	c-0.06,0.369-0.138,0.737-0.237,1.106c-0.049,0.18-0.092,0.361-0.13,0.544l-3.342,16.004c-0.904,4.331,1.145,8.741,5.037,10.843
	c3.893,2.103,8.704,1.397,11.83-1.734l23.2-23.244c0.617,1.048,1.309,2.058,2.06,3.035c0.06,0.078,0.119,0.157,0.18,0.235
	c0.199,0.253,0.403,0.502,0.611,0.75c0.123,0.147,0.245,0.294,0.371,0.44c0.059,0.068,0.114,0.139,0.174,0.207
	c-0.081,0.893-0.122,1.791-0.123,2.689c0.006,4.748,1.124,9.392,3.22,13.567c-0.037,0.073-0.068,0.149-0.104,0.223
	c-0.18,0.366-0.352,0.736-0.516,1.108c-0.05,0.113-0.104,0.225-0.152,0.339c-0.207,0.484-0.402,0.974-0.583,1.469
	c-0.041,0.112-0.077,0.226-0.117,0.338c-0.138,0.39-0.268,0.782-0.39,1.177c-0.05,0.162-0.098,0.325-0.145,0.488
	c-0.109,0.375-0.21,0.753-0.304,1.133c-0.036,0.143-0.074,0.285-0.107,0.428c-0.12,0.514-0.229,1.031-0.322,1.551
	c-0.015,0.083-0.025,0.168-0.04,0.251c-0.075,0.442-0.141,0.886-0.197,1.332c-0.021,0.168-0.039,0.337-0.057,0.506
	c-0.041,0.382-0.075,0.765-0.102,1.15c-0.012,0.163-0.025,0.326-0.033,0.489c-0.029,0.531-0.048,1.063-0.049,1.596
	c0,0.003,0,0.007,0,0.01v0.001c0,0.001,0,0.001,0,0.001c0,0.013,0.001,0.026,0.001,0.039c0.001,0.449,0.013,0.898,0.034,1.347
	c0.017,0.367,0.046,0.732,0.075,1.096c0.005,0.061,0.007,0.123,0.013,0.184c-0.056,0.064-0.107,0.13-0.163,0.193
	c-0.148,0.17-0.29,0.342-0.433,0.515c-0.162,0.195-0.324,0.391-0.48,0.59c-0.14,0.178-0.276,0.358-0.411,0.539
	c-0.149,0.199-0.298,0.398-0.442,0.6c-0.131,0.184-0.258,0.371-0.385,0.558c-0.138,0.204-0.275,0.409-0.408,0.616
	c-0.122,0.19-0.24,0.381-0.357,0.574c-0.127,0.208-0.253,0.417-0.374,0.628c-0.113,0.197-0.223,0.395-0.332,0.594
	c-0.115,0.21-0.228,0.421-0.337,0.634c-0.104,0.203-0.205,0.407-0.305,0.611c-0.104,0.214-0.206,0.428-0.304,0.644
	c-0.095,0.208-0.186,0.417-0.277,0.626c-0.092,0.216-0.183,0.433-0.271,0.651c-0.086,0.213-0.168,0.427-0.249,0.642
	c-0.081,0.216-0.16,0.434-0.236,0.652c-0.077,0.22-0.151,0.441-0.223,0.662c-0.07,0.216-0.137,0.432-0.201,0.649
	c-0.068,0.227-0.133,0.454-0.195,0.682c-0.059,0.214-0.114,0.429-0.168,0.645c-0.058,0.233-0.115,0.467-0.167,0.701
	c-0.048,0.213-0.092,0.427-0.136,0.641c-0.048,0.238-0.094,0.477-0.137,0.716c-0.037,0.211-0.071,0.422-0.104,0.633
	c-0.038,0.246-0.075,0.492-0.107,0.738c-0.027,0.205-0.05,0.41-0.073,0.615c-0.028,0.254-0.055,0.508-0.077,0.763
	c-0.017,0.2-0.03,0.4-0.044,0.6c-0.017,0.261-0.033,0.521-0.044,0.781c-0.008,0.194-0.012,0.389-0.016,0.583
	c-0.006,0.267-0.011,0.535-0.01,0.802c0.001,0.187,0.005,0.375,0.01,0.562c0.006,0.274,0.013,0.549,0.026,0.823
	c0.009,0.18,0.022,0.359,0.033,0.538c0.019,0.283,0.038,0.565,0.064,0.847c0.016,0.169,0.036,0.337,0.054,0.505
	c0.032,0.292,0.065,0.583,0.105,0.874c0.022,0.159,0.048,0.317,0.073,0.475c0.046,0.3,0.093,0.599,0.148,0.897
	c0.027,0.149,0.059,0.297,0.089,0.445c0.061,0.306,0.123,0.612,0.194,0.917c0.032,0.138,0.068,0.274,0.102,0.412
	c0.077,0.314,0.155,0.628,0.242,0.94c0.035,0.126,0.075,0.251,0.112,0.377c0.094,0.32,0.189,0.64,0.293,0.958
	c0.038,0.116,0.081,0.232,0.12,0.348c0.111,0.325,0.224,0.65,0.346,0.972c0.04,0.104,0.084,0.208,0.124,0.312
	c0.13,0.331,0.261,0.661,0.403,0.989c0.04,0.093,0.084,0.185,0.126,0.277c0.149,0.335,0.3,0.67,0.462,1.001
	c0.041,0.084,0.086,0.166,0.128,0.25c0.168,0.337,0.338,0.672,0.52,1.004c0.042,0.078,0.089,0.154,0.132,0.231
	c0.187,0.335,0.376,0.669,0.576,0.998c0.044,0.073,0.092,0.144,0.137,0.216c0.204,0.33,0.411,0.659,0.629,0.982
	c0.057,0.084,0.118,0.166,0.176,0.25c0.212,0.309,0.426,0.617,0.651,0.919c0.089,0.12,0.186,0.237,0.277,0.356
	c0.2,0.261,0.399,0.523,0.608,0.78c0.309,0.377,0.627,0.749,0.956,1.114c0.357,0.397,0.734,0.795,1.11,1.17l58.736,58.737
	L204.518,410.148z M263.081,365.746c-0.003-0.003-0.006-0.007-0.009-0.01l-65.821-65.82c-0.126-0.126-0.248-0.255-0.376-0.397
	c-0.304-0.337-0.574-0.693-0.829-1.057c-0.068-0.096-0.133-0.194-0.197-0.292c-0.219-0.334-0.422-0.676-0.6-1.026
	c-0.02-0.039-0.044-0.076-0.063-0.115c-0.191-0.385-0.35-0.78-0.493-1.18c-0.038-0.106-0.072-0.213-0.107-0.32
	c-0.112-0.348-0.208-0.699-0.284-1.053c-0.01-0.049-0.025-0.097-0.034-0.146c0.051,0.036,0.104,0.066,0.155,0.101
	c0.523,0.364,1.055,0.712,1.596,1.039c0.081,0.049,0.165,0.094,0.246,0.143c0.495,0.293,0.998,0.57,1.506,0.832
	c0.109,0.056,0.217,0.115,0.326,0.169c0.567,0.284,1.141,0.55,1.722,0.797c0.102,0.043,0.205,0.083,0.307,0.125
	c0.534,0.22,1.074,0.425,1.618,0.614c0.084,0.029,0.167,0.061,0.252,0.09c0.601,0.202,1.208,0.383,1.819,0.547
	c0.116,0.031,0.232,0.06,0.348,0.089c0.586,0.15,1.174,0.285,1.767,0.4c0.041,0.008,0.082,0.018,0.123,0.026
	c0.626,0.118,1.256,0.213,1.887,0.292c0.126,0.016,0.251,0.03,0.377,0.044c0.634,0.072,1.269,0.13,1.906,0.162
	c0.362,7.272,3.313,14.425,8.793,19.904c0,0,0,0,0.001,0l0,0c0.049,0.049,0.102,0.093,0.151,0.142
	c5.654,5.578,13.047,8.49,20.518,8.677c2.379,0.06,4.765-0.149,7.105-0.644c1.208,4.837,3.614,9.406,7.216,13.216
	c0.363,0.384,0.734,0.755,1.111,1.116c0.125,0.119,0.255,0.23,0.381,0.347c0.256,0.236,0.512,0.474,0.775,0.7
	c0.154,0.133,0.313,0.257,0.469,0.386c0.242,0.2,0.482,0.401,0.728,0.592c0.171,0.132,0.346,0.257,0.519,0.385
	c0.237,0.176,0.474,0.353,0.716,0.522c0.183,0.128,0.37,0.248,0.556,0.371c0.237,0.158,0.474,0.316,0.715,0.466
	c0.192,0.12,0.387,0.233,0.581,0.348c0.24,0.142,0.48,0.285,0.724,0.42c0.199,0.111,0.401,0.216,0.602,0.322
	c0.243,0.128,0.485,0.255,0.731,0.375c0.206,0.101,0.413,0.197,0.621,0.294c0.247,0.114,0.493,0.227,0.742,0.334
	c0.209,0.09,0.42,0.177,0.631,0.262c0.251,0.102,0.503,0.201,0.756,0.295c0.213,0.08,0.426,0.156,0.641,0.23
	c0.255,0.089,0.512,0.175,0.769,0.257c0.215,0.068,0.43,0.135,0.646,0.198c0.261,0.077,0.522,0.149,0.784,0.219
	c0.215,0.057,0.431,0.113,0.647,0.165c0.266,0.064,0.533,0.124,0.8,0.181c0.215,0.046,0.429,0.091,0.645,0.133
	c0.272,0.052,0.545,0.098,0.818,0.142c0.213,0.035,0.426,0.07,0.64,0.101c0.277,0.039,0.555,0.072,0.832,0.103
	c0.212,0.024,0.423,0.05,0.635,0.069c0.284,0.026,0.568,0.045,0.852,0.063c0.206,0.013,0.413,0.029,0.619,0.038
	c0.293,0.013,0.586,0.017,0.878,0.022c0.16,0.003,0.319,0.012,0.479,0.012c0.042,0,0.084-0.003,0.126-0.003
	c0.221-0.001,0.442-0.009,0.663-0.015c0.245-0.006,0.49-0.012,0.735-0.024c0.228-0.011,0.456-0.029,0.684-0.046
	c0.237-0.017,0.474-0.034,0.71-0.056c0.232-0.022,0.462-0.05,0.694-0.078c0.233-0.028,0.467-0.056,0.7-0.089
	c0.232-0.033,0.462-0.071,0.693-0.109s0.461-0.077,0.691-0.121c0.231-0.044,0.462-0.092,0.693-0.141
	c0.229-0.049,0.457-0.1,0.685-0.154c0.229-0.054,0.457-0.112,0.684-0.172c0.228-0.06,0.455-0.123,0.682-0.188
	c0.225-0.065,0.45-0.132,0.674-0.203c0.227-0.071,0.453-0.146,0.679-0.223c0.22-0.075,0.44-0.151,0.659-0.232
	c0.228-0.083,0.454-0.171,0.68-0.26c0.214-0.084,0.428-0.169,0.64-0.259c0.228-0.096,0.454-0.197,0.681-0.299
	c0.207-0.094,0.415-0.186,0.62-0.285c0.228-0.109,0.454-0.224,0.68-0.339c0.2-0.102,0.4-0.202,0.598-0.309
	c0.23-0.124,0.457-0.255,0.684-0.385c0.19-0.109,0.381-0.215,0.569-0.329c0.233-0.141,0.463-0.289,0.693-0.437
	c0.177-0.114,0.356-0.224,0.532-0.342c0.24-0.161,0.475-0.331,0.712-0.5c0.161-0.115,0.325-0.226,0.485-0.345
	c0.261-0.194,0.517-0.399,0.773-0.603c0.129-0.103,0.261-0.201,0.39-0.306c0.382-0.315,0.759-0.639,1.128-0.975
	c0.206-0.177,0.406-0.363,0.604-0.561l2.928-2.927c0.114-0.114,0.226-0.232,0.334-0.351l50.417-50.513
	c0.273,1.345,0.658,2.669,1.111,3.975c0.021,0.06,0.039,0.121,0.06,0.181c0.201,0.569,0.423,1.131,0.658,1.69
	c0.064,0.152,0.128,0.304,0.194,0.455c0.226,0.516,0.465,1.026,0.72,1.532c0.089,0.177,0.184,0.352,0.277,0.527
	c0.187,0.353,0.356,0.712,0.557,1.06c3.019,5.23,7.388,9.371,12.627,12.078c0.022,0.011,0.044,0.023,0.066,0.034
	c1.233,0.633,2.514,1.186,3.837,1.656c0.146,0.052,0.292,0.103,0.439,0.153c0.644,0.218,1.294,0.423,1.956,0.6
	c0.739,0.198,1.479,0.358,2.219,0.5c0.159,0.03,0.317,0.061,0.476,0.089c0.722,0.127,1.443,0.232,2.163,0.306
	c0.117,0.012,0.234,0.019,0.351,0.03c0.659,0.061,1.316,0.101,1.971,0.119c0.125,0.004,0.25,0.011,0.375,0.013
	c0.714,0.012,1.424-0.004,2.132-0.041c0.154-0.008,0.307-0.02,0.46-0.03c0.696-0.047,1.39-0.111,2.078-0.205
	c0.03-0.004,0.061-0.006,0.091-0.01c0.708-0.098,1.408-0.229,2.105-0.375c0.155-0.033,0.31-0.065,0.464-0.1
	c0.681-0.154,1.357-0.326,2.024-0.525c0.102-0.03,0.201-0.065,0.302-0.096c0.606-0.187,1.205-0.393,1.798-0.617
	c0.126-0.047,0.252-0.092,0.377-0.141c0.642-0.252,1.275-0.525,1.898-0.818c0.137-0.064,0.272-0.132,0.408-0.198
	c0.592-0.289,1.177-0.592,1.749-0.917c0.052-0.029,0.105-0.056,0.157-0.085c0.605-0.348,1.194-0.722,1.775-1.109
	c0.134-0.089,0.267-0.179,0.4-0.271c0.571-0.394,1.131-0.802,1.675-1.233c0.074-0.058,0.144-0.121,0.217-0.18
	c0.496-0.401,0.979-0.818,1.451-1.249c0.104-0.095,0.21-0.189,0.313-0.285c0.504-0.474,0.993-0.965,1.466-1.473
	c0.099-0.107,0.196-0.217,0.294-0.325c0.441-0.487,0.869-0.985,1.28-1.501c0.046-0.058,0.095-0.114,0.141-0.172
	c0.437-0.557,0.851-1.135,1.251-1.724c0.045-0.067,0.097-0.128,0.142-0.196l0.073,0.352c1.26,6.03,4.176,11.571,8.434,16.022
	c7.22,7.55,7.085,19.701-0.302,27.087l-67.177,67.177c-11.222,11.22-29.48,11.223-40.7,0L263.081,365.746z M385.192,487.856
	l-43.216-43.216l20.35-20.35l67.177-67.177l15.14-15.14l8.88,8.88l-58.764,58.763c-3.905,3.905-3.905,10.237,0,14.143
	c1.953,1.952,4.512,2.929,7.071,2.929c2.559,0,5.118-0.977,7.071-2.929l27.757-27.756c1.603,4.751,4.288,9.214,8.066,12.993
	c0,0,0,0,0.001,0c3.44,3.44,7.447,5.969,11.721,7.606L385.192,487.856z"/>
<g>
</g>
<g>
</g>
<g>
</g>
<g>
</g>
<g>
</g>
<g>
</g>
<g>
</g>
<g>
</g>
<g>
</g>
<g>
</g>
<g>
</g>
<g>
</g>
<g>
</g>
<g>
</g>
<g>
</g>
</svg>
