<?xml version="1.0" encoding="iso-8859-1"?>
<!-- Generator: Adobe Illustrator 19.0.0, SVG Export Plug-In . SVG Version: 6.00 Build 0)  -->
<svg version="1.1" id="Capa_1" xmlns="http://www.w3.org/2000/svg" xmlns:xlink="http://www.w3.org/1999/xlink" x="0px" y="0px"
	 viewBox="0 0 512 512" style="enable-background:new 0 0 512 512;" xml:space="preserve">
<circle style="fill:#4A5370;" cx="255.998" cy="255.999" r="255.998"/>
<path style="fill:#FFC772;" d="M110.971,45.026c-2.09-10.48-7.199-20.48-15.329-28.609C84.702,5.477,70.366,0.002,56.03,0.002
	S27.358,5.477,16.418,16.417c-21.89,21.88-21.89,57.344,0,79.234c8.129,8.129,18.118,13.228,28.599,15.318
	c3.626,0.721,7.314,1.087,11.003,1.087c4.566,0,9.143-0.554,13.604-1.661l40.761-40.772v-0.01
	C112.392,61.557,112.59,53.145,110.971,45.026z M31.925,80.135c-13.281-13.291-13.281-34.91,0-48.201
	c6.447-6.437,15.005-9.989,24.106-9.989s17.659,3.553,24.095,9.989C87.377,39.186,90.888,48.997,90,58.986l-3.291,3.291
	c0,0,0,0-0.01,0L62.279,86.697c0,0,0.01,0,0,0.01l-3.291,3.281c-0.982,0.084-1.975,0.125-2.967,0.125
	C46.919,90.114,38.372,86.571,31.925,80.135z"/>
<path style="fill:#F48944;" d="M156.605,115.792l-45.352-45.354c-11.272-11.272-29.544-11.272-40.817,0
	c-11.272,11.272-11.272,29.544,0,40.817l45.354,45.352L156.605,115.792z"/>
<path style="fill:#FFC772;" d="M512,256.001c0,141.384-114.614,255.998-255.998,255.998c-28.839,0-56.57-4.765-82.431-13.563
	c-21.577-11.128-41.827-25.746-59.925-43.833c-87.238-87.248-93.643-224.714-19.195-319.329
	c5.893-7.492,12.288-14.712,19.195-21.619c6.907-6.907,14.137-13.312,21.629-19.195c94.615-74.438,232.07-68.043,319.308,19.195
	c18.129,18.129,32.768,38.431,43.906,60.06C507.246,199.545,512,227.214,512,256.001z"/>
<path style="fill:#F9E7CD;" d="M423.205,406.319c-2.623,2.967-5.339,5.872-8.181,8.714c-2.832,2.832-5.736,5.559-8.704,8.171
	c-69.747,61.398-174.643,61.398-244.39,0c-2.967-2.612-5.872-5.329-8.714-8.171c-2.842-2.842-5.559-5.747-8.171-8.714
	c-61.398-69.747-61.398-174.643,0-244.39c2.612-2.967,5.339-5.872,8.171-8.704c2.842-2.842,5.747-5.559,8.714-8.182
	c69.747-61.387,174.633-61.387,244.379,0.01c2.967,2.612,5.872,5.329,8.714,8.171s5.559,5.747,8.171,8.714
	C484.593,231.686,484.593,336.572,423.205,406.319z"/>
<path style="fill:#E8D4BB;" d="M205.82,423.204c-2.967-2.612-5.872-5.329-8.714-8.171s-5.559-5.747-8.171-8.714
	c-61.398-69.747-61.398-174.643,0-244.39c2.612-2.967,5.339-5.872,8.171-8.704c2.842-2.842,5.747-5.559,8.714-8.182
	c29.018-25.539,64.118-40.444,100.24-44.731c-50.696-6.019-103.402,8.886-144.129,44.731c-2.967,2.623-5.872,5.339-8.714,8.182
	c-2.832,2.832-5.559,5.736-8.171,8.704c-61.398,69.747-61.398,174.643,0,244.39c2.612,2.967,5.329,5.872,8.171,8.714
	c2.842,2.842,5.747,5.559,8.714,8.171c40.728,35.852,93.439,50.759,144.14,44.74C269.945,463.656,234.839,448.75,205.82,423.204z"/>
<polygon style="fill:#27D1CF;" points="323.654,267.751 330.319,395.654 244.583,300.508 237.917,172.604 "/>
<polygon style="fill:#FF6954;" points="323.654,267.751 330.319,395.654 244.583,300.508 "/>
<g>
	<path style="fill:#F48944;" d="M201.981,383.258l-39.037,39.037c-0.324,0.324-0.658,0.627-1.014,0.909
		c-2.967-2.612-5.872-5.329-8.714-8.171c-2.842-2.842-5.559-5.747-8.171-8.714c0.282-0.355,0.585-0.69,0.909-1.014l39.037-39.037
		c4.692-4.692,12.298-4.692,16.99,0C206.672,370.96,206.672,378.566,201.981,383.258z"/>
	<path style="fill:#F48944;" d="M423.195,161.939c-0.272,0.345-0.575,0.679-0.899,1.003l-39.037,39.048
		c-2.351,2.341-5.423,3.511-8.505,3.511c-3.072,0-6.144-1.17-8.495-3.511c-4.692-4.702-4.692-12.309,0-17l39.048-39.037
		c0.324-0.324,0.658-0.627,1.003-0.899c2.967,2.612,5.872,5.329,8.714,8.171C417.866,156.067,420.582,158.972,423.195,161.939z"/>
	<path style="fill:#F48944;" d="M201.981,201.99c-2.341,2.341-5.423,3.511-8.495,3.511c-3.072,0-6.154-1.17-8.495-3.511
		l-39.037-39.048c-0.324-0.324-0.627-0.669-0.909-1.014c2.612-2.967,5.339-5.872,8.171-8.704c2.842-2.842,5.747-5.559,8.714-8.182
		c0.355,0.282,0.69,0.585,1.014,0.909l39.037,39.037C206.672,189.681,206.672,197.288,201.981,201.99z"/>
	<path style="fill:#F48944;" d="M423.205,406.319c-2.623,2.967-5.339,5.872-8.181,8.714c-2.832,2.832-5.736,5.559-8.704,8.171
		c-0.355-0.282-0.69-0.585-1.014-0.909l-39.048-39.037c-4.692-4.692-4.692-12.298,0-16.99s12.298-4.692,17,0l39.037,39.037
		C422.62,405.629,422.923,405.963,423.205,406.319z"/>
</g>
<circle style="fill:#FCF2E8;" cx="427.246" cy="244.798" r="27.428"/>
<g>
</g>
<g>
</g>
<g>
</g>
<g>
</g>
<g>
</g>
<g>
</g>
<g>
</g>
<g>
</g>
<g>
</g>
<g>
</g>
<g>
</g>
<g>
</g>
<g>
</g>
<g>
</g>
<g>
</g>
</svg>
